<svg width="30" height="27" viewBox="0 0 30 27" fill="none" xmlns="http://www.w3.org/2000/svg">
<path fill-rule="evenodd" clip-rule="evenodd" d="M25.2824 14.0571C25.2824 12.2365 25.0722 9.80396 24.8902 8.04529C24.8091 7.26196 24.1801 6.65192 23.3832 6.59508C23.0128 6.56866 22.6069 6.54055 22.1745 6.51185C20.9689 6.43185 19.8675 5.7809 19.2212 4.74879L18.0384 2.85979C17.7257 2.36032 17.1789 2.05714 16.5908 2.05714H11.4099C10.8218 2.05714 10.275 2.36032 9.96222 2.85979L8.77942 4.74879C8.13316 5.7809 7.03171 6.43185 5.8261 6.51185C5.39371 6.54054 4.98782 6.56866 4.61749 6.59507C3.82057 6.65192 3.19154 7.26196 3.11047 8.04529C2.92845 9.80396 2.71827 12.2365 2.71827 14.0571C2.71827 15.8778 2.92845 18.3103 3.11047 20.069C3.19159 20.8528 3.82002 21.4623 4.61645 21.5191C7.07952 21.6948 11.0791 21.9429 14.0003 21.9429C16.9216 21.9429 20.9211 21.6948 23.3842 21.5191C24.1806 21.4623 24.8091 20.8528 24.8902 20.069C25.0722 18.3103 25.2824 15.8778 25.2824 14.0571ZM26.9305 7.83292C27.1132 9.59816 27.3337 12.1218 27.3337 14.0571C27.3337 15.9925 27.1132 18.5161 26.9305 20.2814C26.7453 22.0708 25.3066 23.4443 23.5297 23.5711C21.0659 23.7469 17.0017 24 14.0003 24C10.9989 24 6.93478 23.7469 4.47091 23.5711C2.69409 23.4443 1.25535 22.0708 1.07015 20.2814C0.887449 18.5161 0.666992 15.9925 0.666992 14.0571C0.666992 12.1218 0.887449 9.59815 1.07015 7.83292C1.2554 6.04295 2.69561 4.66982 4.47194 4.54312C4.84533 4.51648 5.25461 4.48813 5.69067 4.4592C6.24698 4.42228 6.74947 4.12239 7.04223 3.65482L8.22504 1.76582C8.91308 0.666985 10.1161 2.50273e-08 11.4099 0L16.5908 6.36239e-08C17.8846 3.85967e-08 19.0876 0.666986 19.7756 1.76583L20.9584 3.65482C21.2512 4.12239 21.7537 4.42228 22.31 4.4592C22.746 4.48813 23.1553 4.51648 23.5287 4.54312C25.305 4.66983 26.7452 6.04296 26.9305 7.83292Z" fill="white"/>
<path fill-rule="evenodd" clip-rule="evenodd" d="M14.0003 10.2857C12.301 10.2857 10.9234 11.6672 10.9234 13.3714C10.9234 15.0756 12.301 16.4571 14.0003 16.4571C15.6997 16.4571 17.0772 15.0756 17.0772 13.3714C17.0772 11.6672 15.6997 10.2857 14.0003 10.2857ZM8.87212 13.3714C8.87212 10.5311 11.1681 8.22857 14.0003 8.22857C16.8326 8.22857 19.1285 10.5311 19.1285 13.3714C19.1285 16.2118 16.8326 18.5143 14.0003 18.5143C11.1681 18.5143 8.87212 16.2118 8.87212 13.3714Z" fill="white"/>
<circle cx="24" cy="21" r="6" fill="url(#paint0_linear_1_198)"/>
<path d="M27 21.5647H24.6235V24H23.3765V21.5647H21V20.4353H23.3765V18H24.6235V20.4353H27V21.5647Z" fill="white"/>
<defs>
<linearGradient id="paint0_linear_1_198" x1="24" y1="15" x2="24" y2="27" gradientUnits="userSpaceOnUse">
<stop stop-color="#6595FF"/>
<stop offset="1" stop-color="#407BFF"/>
</linearGradient>
</defs>
</svg>
