<svg width="41" height="45" viewBox="0 0 41 45" fill="none" xmlns="http://www.w3.org/2000/svg">
<g clip-path="url(#clip0_1717_28661)">
<path d="M15.1921 10.078C17.8244 8.86717 18.9836 5.7368 17.7812 3.08612C16.5787 0.435435 13.47 -0.731809 10.8376 0.479008C8.20524 1.68983 7.04606 4.82019 8.24851 7.47088C9.45096 10.1216 12.5597 11.2888 15.1921 10.078Z" fill="#8696AE"/>
<path d="M26.2639 10.5494C29.1562 10.448 31.4191 8.00476 31.3184 5.09239C31.2176 2.18002 28.7913 -0.0986714 25.899 0.00279761C23.0068 0.104267 20.7438 2.54747 20.8446 5.45984C20.9454 8.37221 23.3717 10.6509 26.2639 10.5494Z" fill="#8696AE"/>
<path d="M39.9255 23.9239L31.4997 13.0112C31.202 12.6515 30.7554 12.4116 30.3088 12.4116H7.11572C6.57981 12.4116 6.07367 12.7114 5.83549 13.2211L0.208409 24.7334C-0.267957 25.7227 0.148863 26.892 1.13137 27.3716C2.0841 27.8213 3.21547 27.4316 3.69184 26.5022L7.59209 18.7974L8.42573 26.2624L6.66913 41.9419C6.49049 43.4409 7.68141 44.7601 9.17005 44.7601C10.4503 44.7601 11.5221 43.8007 11.671 42.5415L13.1596 32.7381L14.7078 42.5415C14.8567 43.8007 15.9285 44.7601 17.2087 44.7601C18.7271 44.7601 22.419 44.79 23.4313 44.7601C24.3542 44.7601 25.0985 44.0105 25.1879 43.0812L26.1704 32.3183L27.1827 43.0812C27.272 44.0105 28.0461 44.7001 28.969 44.7001C29.9515 44.7001 30.7554 43.8607 30.7256 42.8713L30.3386 31.1491H34.0602L31.3806 19.4869L37.3352 26.4123C37.9902 27.0119 38.9727 27.0718 39.6575 26.5322C40.4018 25.8427 40.5209 24.7034 39.9255 23.9239Z" fill="#8696AE"/>
<path d="M19.8883 26.1728C21.5854 26.1728 22.9251 24.7937 22.9251 23.0848C22.9251 21.376 21.5556 20.0269 19.8585 20.0269C18.1615 20.0269 16.8217 21.4059 16.8217 23.1148C16.8515 24.7937 18.221 26.1728 19.8883 26.1728Z" fill="#2B2C3D"/>
<path d="M28.3736 33.9678C28.7011 33.5481 28.6713 32.9485 28.2843 32.5887L23.5206 28.0317C23.2229 27.7619 22.8358 27.582 22.419 27.582H19.9181H17.4171C17.0003 27.582 16.6133 27.7319 16.3155 28.0317L11.5519 32.5887C11.1648 32.9485 11.1351 33.5481 11.4626 33.9678C11.7901 34.3875 12.4153 34.4774 12.8619 34.1776L16.4346 31.5994L17.0301 35.8865L15.8987 45.0304H18.8165L19.9181 38.9445L21.0197 45.0304H23.9374L22.806 35.8865L23.4015 31.5994L26.9742 34.1776C27.4208 34.4774 28.0163 34.3875 28.3736 33.9678Z" fill="#2B2C3D"/>
</g>
<defs>
<clipPath id="clip0_1717_28661">
<rect width="40.3125" height="45" fill="white"/>
</clipPath>
</defs>
</svg>
