<svg width="22" height="22" viewBox="0 0 22 22" fill="none" xmlns="http://www.w3.org/2000/svg">
<path d="M13.1541 1.83334H8.84578C7.89245 1.83334 7.11328 2.60334 7.11328 3.55667V4.41834C7.11328 5.37167 7.88328 6.14167 8.83661 6.14167H13.1541C14.1074 6.14167 14.8774 5.37167 14.8774 4.41834V3.55667C14.8866 2.60334 14.1074 1.83334 13.1541 1.83334Z" fill="url(#paint0_linear_1695_14628)"/>
<path d="M15.8031 4.41833C15.8031 5.87583 14.6115 7.0675 13.154 7.0675H8.84562C7.38812 7.0675 6.19646 5.87583 6.19646 4.41833C6.19646 3.905 5.64646 3.58416 5.18812 3.8225C3.89562 4.51 3.01562 5.87583 3.01562 7.44333V16.0692C3.01562 18.3242 4.85813 20.1667 7.11313 20.1667H14.8865C17.1415 20.1667 18.984 18.3242 18.984 16.0692V7.44333C18.984 5.87583 18.104 4.51 16.8115 3.8225C16.3531 3.58416 15.8031 3.905 15.8031 4.41833ZM11.3481 15.5375H7.33313C6.95729 15.5375 6.64563 15.2258 6.64563 14.85C6.64563 14.4742 6.95729 14.1625 7.33313 14.1625H11.3481C11.724 14.1625 12.0356 14.4742 12.0356 14.85C12.0356 15.2258 11.724 15.5375 11.3481 15.5375ZM13.7498 11.8708H7.33313C6.95729 11.8708 6.64563 11.5592 6.64563 11.1833C6.64563 10.8075 6.95729 10.4958 7.33313 10.4958H13.7498C14.1256 10.4958 14.4373 10.8075 14.4373 11.1833C14.4373 11.5592 14.1256 11.8708 13.7498 11.8708Z" fill="url(#paint1_linear_1695_14628)"/>
<defs>
<linearGradient id="paint0_linear_1695_14628" x1="10.9954" y1="1.83334" x2="10.9954" y2="6.14167" gradientUnits="userSpaceOnUse">
<stop stop-color="#6595FF"/>
<stop offset="1" stop-color="#407BFF"/>
</linearGradient>
<linearGradient id="paint1_linear_1695_14628" x1="10.9998" y1="3.74232" x2="10.9998" y2="20.1667" gradientUnits="userSpaceOnUse">
<stop stop-color="#6595FF"/>
<stop offset="1" stop-color="#407BFF"/>
</linearGradient>
</defs>
</svg>
