<svg width="40" height="36" viewBox="0 0 40 36" fill="none" xmlns="http://www.w3.org/2000/svg">
<path fill-rule="evenodd" clip-rule="evenodd" d="M26.2173 2.057L19.8978 2.28943L19.8917 2.12684L26.2112 1.89441L26.2173 2.057ZM15.3151 2.24675L9.94797 2.28948L9.94666 2.12679L15.3138 2.08406L15.3151 2.24675ZM11.8669 7.36408L9.64341 3.76143L9.7831 3.67641L12.0066 7.27906L11.8669 7.36408ZM32.3428 8.11762L29.1911 3.88349L29.3229 3.78678L32.4746 8.02091L32.3428 8.11762ZM23.346 8.07922L27.325 3.89549L27.4441 4.00721L23.4651 8.19093L23.346 8.07922ZM21.6987 8.17975L19.0071 4.11224L19.144 4.02289L21.8356 8.0904L21.6987 8.17975ZM7.0859 4.46662L3.57505 8.88277L3.44646 8.78195L6.95731 4.3658L7.0859 4.46662ZM13.3955 8.31515L16.7029 4.409L16.8283 4.51371L13.5209 8.41986L13.3955 8.31515ZM21.66 9.26176L12.9999 10.3077L12.9802 10.1462L21.6403 9.10025L21.66 9.26176ZM10.1891 9.37821L3.98656 9.95928L3.97118 9.7973L10.1737 9.21623L10.1891 9.37821ZM31.7089 10.1919L23.2829 9.6108L23.2942 9.44849L31.7203 10.0296L31.7089 10.1919ZM11.4113 10.6314L7.54932 14.6989L7.43011 14.5873L11.292 10.5198L11.4113 10.6314ZM5.42851 14.2175L3.55606 10.8473L3.69951 10.7687L5.57196 14.1389L5.42851 14.2175ZM38.0816 16.9682L34.4538 11.1997L34.5927 11.1136L38.2206 16.882L38.0816 16.9682ZM2.53892 11.1656L1.71972 18.4872L1.55688 18.4692L2.37608 11.1477L2.53892 11.1656ZM32.3271 15.7371L32.7231 11.2764L32.8863 11.2907L32.4903 15.7514L32.3271 15.7371ZM5.2099 17.2544L2.98636 19.6949L2.86487 19.5857L5.08841 17.1452L5.2099 17.2544ZM32.6747 17.8193L36.8878 19.0977L36.8399 19.2533L32.6269 17.9749L32.6747 17.8193Z" fill="#D0D0D0"/>
<path opacity="0.8" d="M20.0154 2.37221C20.0154 3.68235 18.9459 4.74443 17.6266 4.74443C16.3073 4.74443 15.2378 3.68235 15.2378 2.37221C15.2378 1.06208 16.3073 0 17.6266 0C18.9459 0 20.0154 1.06208 20.0154 2.37221Z" fill="#8696AE"/>
<path d="M10.0621 2.70171C10.0621 3.82988 9.14112 4.74445 8.00504 4.74445C6.86897 4.74445 5.948 3.82988 5.948 2.70171C5.948 1.57353 6.86897 0.658966 8.00504 0.658966C9.14112 0.658966 10.0621 1.57353 10.0621 2.70171Z" fill="#9CA6AE"/>
<path opacity="0.8" d="M8.07117 15.8147C8.07117 16.8337 7.23933 17.6598 6.2132 17.6598C5.18707 17.6598 4.35522 16.8337 4.35522 15.8147C4.35522 14.7957 5.18707 13.9697 6.2132 13.9697C7.23933 13.9697 8.07117 14.7957 8.07117 15.8147Z" fill="#8696AE"/>
<path opacity="0.8" d="M39.7895 18.6482C39.7895 19.6308 38.9874 20.4274 37.9979 20.4274C37.0084 20.4274 36.2063 19.6308 36.2063 18.6482C36.2063 17.6656 37.0084 16.869 37.9979 16.869C38.9874 16.869 39.7895 17.6656 39.7895 18.6482Z" fill="#8696AE"/>
<path opacity="0.8" d="M35.2773 9.48898C35.2773 10.6535 34.3266 11.5976 33.1539 11.5976C31.9812 11.5976 31.0305 10.6535 31.0305 9.48898C31.0305 8.32441 31.9812 7.38034 33.1539 7.38034C34.3266 7.38034 35.2773 8.32441 35.2773 9.48898Z" fill="#8696AE"/>
<path opacity="0.8" d="M23.7312 8.76404C23.7312 9.38272 23.2262 9.88425 22.6032 9.88425C21.9801 9.88425 21.4751 9.38272 21.4751 8.76404C21.4751 8.14537 21.9801 7.64383 22.6032 7.64383C23.2262 7.64383 23.7312 8.14537 23.7312 8.76404Z" fill="#8696AE"/>
<path d="M30.234 2.10863C30.234 3.2732 29.313 4.21727 28.1769 4.21727C27.0408 4.21727 26.1199 3.2732 26.1199 2.10863C26.1199 0.944068 27.0408 0 28.1769 0C29.313 0 30.234 0.944068 30.234 2.10863Z" fill="#C5CCD8"/>
<path opacity="0.8" d="M13.645 8.89562C13.645 9.87822 12.8429 10.6748 11.8534 10.6748C10.8639 10.6748 10.0618 9.87822 10.0618 8.89562C10.0618 7.91301 10.8639 7.11646 11.8534 7.11646C12.8429 7.11646 13.645 7.91301 13.645 8.89562Z" fill="#C5CCD8"/>
<path opacity="0.8" d="M4.08984 9.88435C4.08984 10.685 3.43625 11.334 2.63 11.334C1.82376 11.334 1.17017 10.685 1.17017 9.88435C1.17017 9.08371 1.82376 8.43466 2.63 8.43466C3.43625 8.43466 4.08984 9.08371 4.08984 9.88435Z" fill="#9CA6AE"/>
<path opacity="0.8" d="M33.0211 16.9349C33.0211 17.6992 32.3972 18.3187 31.6276 18.3187C30.858 18.3187 30.2341 17.6992 30.2341 16.9349C30.2341 16.1707 30.858 15.5511 31.6276 15.5511C32.3972 15.5511 33.0211 16.1707 33.0211 16.9349Z" fill="#C5CCD8"/>
<path opacity="0.8" d="M3.05239 19.4127C3.05239 20.2498 2.36909 20.9283 1.52619 20.9283C0.6833 20.9283 0 20.2498 0 19.4127C0 18.5757 0.6833 17.8972 1.52619 17.8972C2.36909 17.8972 3.05239 18.5757 3.05239 19.4127Z" fill="#C5CCD8"/>
<path d="M20.0011 19.9033C21.8885 19.9033 23.4186 18.3839 23.4186 16.5096C23.4186 14.6354 21.8885 13.116 20.0011 13.116C18.1138 13.116 16.5837 14.6354 16.5837 16.5096C16.5837 18.3839 18.1138 19.9033 20.0011 19.9033Z" fill="url(#paint0_linear_1695_10130)"/>
<path d="M32.4743 26.4497C32.3916 27.0061 32.1446 27.5256 31.7646 27.9426C31.3845 28.3595 30.8885 28.6553 30.3393 28.7923C29.79 28.9294 29.2121 28.9017 28.6787 28.7126C28.1454 28.5236 27.6804 28.1817 27.3426 27.7303C27.0049 27.2788 26.8095 26.7381 26.7812 26.1764C26.7529 25.6147 26.8929 25.0573 27.1836 24.5746C27.4743 24.0919 27.9026 23.7057 28.4143 23.4647C28.926 23.2237 29.4982 23.1388 30.0585 23.2208C30.8099 23.3312 31.4864 23.7333 31.9393 24.3387C32.3923 24.9442 32.5848 25.7034 32.4743 26.4497Z" fill="url(#paint1_linear_1695_10130)"/>
<path d="M19.9971 21.1327C20.5155 21.1636 22.5767 21.2254 24.3373 19.7571C25.2946 18.9436 25.9754 17.8561 26.2865 16.6435C26.8402 14.5266 25.9962 12.941 26.272 12.836C26.6059 12.7145 28.497 14.8582 28.4245 17.3663C28.3436 20.2184 26.0916 21.7855 24.2191 24.1392C22.4399 26.3859 20.5217 29.9463 19.9971 35.704" fill="url(#paint2_linear_1695_10130)"/>
<path d="M19.9971 21.1327C19.4807 21.1636 17.4195 21.2254 15.6589 19.7571C14.7011 18.9436 14.0196 17.8562 13.7076 16.6435C13.1539 14.5266 14.0062 12.941 13.7325 12.836C13.3986 12.7186 11.5054 14.8623 11.578 17.3663C11.6609 20.2184 13.9129 21.7855 15.7834 24.1392C17.5646 26.3858 19.4807 29.9463 19.9971 35.7039" fill="url(#paint3_linear_1695_10130)"/>
<path d="M25.9361 24.621C26.2658 24.8022 25.4799 25.9781 26.0149 27.4669C26.4711 28.7375 27.5868 29.3944 27.9434 29.5838C29.7206 30.5228 31.5641 29.833 31.9435 29.693C34.3946 28.7745 35.3858 26.3529 35.5496 26.4476C35.7135 26.5423 34.7679 29.6744 32.0617 32.2135C28.974 35.1088 23.7546 37.0877 21.9775 35.3477C20.3455 33.7497 22.16 29.5509 22.4752 28.8198C23.568 26.2602 25.4882 24.378 25.9361 24.621Z" fill="url(#paint4_linear_1695_10130)"/>
<path d="M7.53021 26.4497C7.61294 27.0061 7.85993 27.5256 8.23997 27.9426C8.62001 28.3595 9.11602 28.6553 9.66528 28.7923C10.2146 28.9294 10.7924 28.9017 11.3258 28.7126C11.8592 28.5236 12.3242 28.1817 12.6619 27.7303C12.9997 27.2788 13.1951 26.7381 13.2234 26.1764C13.2517 25.6147 13.1116 25.0573 12.821 24.5746C12.5303 24.0919 12.102 23.7057 11.5902 23.4647C11.0785 23.2237 10.5063 23.1388 9.94603 23.2208C9.19468 23.3312 8.51819 23.7333 8.06521 24.3387C7.61222 24.9442 7.4198 25.7034 7.53021 26.4497Z" fill="url(#paint5_linear_1695_10130)"/>
<path d="M14.0682 24.621C13.7364 24.8022 14.5244 25.9781 13.9894 27.4669C13.5332 28.7375 12.4176 29.3944 12.0588 29.5838C10.2817 30.5228 8.43821 29.833 8.0608 29.693C5.60765 28.7745 4.61644 26.3529 4.46298 26.4476C4.30953 26.5423 5.24683 29.6744 7.9509 32.2135C11.0407 35.1047 16.2642 37.0836 18.0372 35.3436C19.6671 33.7456 17.8547 29.5468 17.5396 28.8157C16.4364 26.2602 14.5161 24.378 14.0682 24.621Z" fill="url(#paint6_linear_1695_10130)"/>
<defs>
<linearGradient id="paint0_linear_1695_10130" x1="20.0011" y1="13.116" x2="20.0011" y2="19.9033" gradientUnits="userSpaceOnUse">
<stop stop-color="#6595FF"/>
<stop offset="1" stop-color="#407BFF"/>
</linearGradient>
<linearGradient id="paint1_linear_1695_10130" x1="29.6412" y1="23.1904" x2="29.6412" y2="28.8781" gradientUnits="userSpaceOnUse">
<stop stop-color="#6595FF"/>
<stop offset="1" stop-color="#407BFF"/>
</linearGradient>
<linearGradient id="paint2_linear_1695_10130" x1="24.2118" y1="12.8311" x2="24.2118" y2="35.704" gradientUnits="userSpaceOnUse">
<stop stop-color="#6595FF"/>
<stop offset="1" stop-color="#407BFF"/>
</linearGradient>
<linearGradient id="paint3_linear_1695_10130" x1="15.7865" y1="12.8314" x2="15.7865" y2="35.7039" gradientUnits="userSpaceOnUse">
<stop stop-color="#6595FF"/>
<stop offset="1" stop-color="#407BFF"/>
</linearGradient>
<linearGradient id="paint4_linear_1695_10130" x1="28.4366" y1="24.5999" x2="28.4366" y2="36" gradientUnits="userSpaceOnUse">
<stop stop-color="#6595FF"/>
<stop offset="1" stop-color="#407BFF"/>
</linearGradient>
<linearGradient id="paint5_linear_1695_10130" x1="10.3634" y1="23.1904" x2="10.3634" y2="28.8781" gradientUnits="userSpaceOnUse">
<stop stop-color="#6595FF"/>
<stop offset="1" stop-color="#407BFF"/>
</linearGradient>
<linearGradient id="paint6_linear_1695_10130" x1="11.5776" y1="24.5999" x2="11.5776" y2="35.9959" gradientUnits="userSpaceOnUse">
<stop stop-color="#6595FF"/>
<stop offset="1" stop-color="#407BFF"/>
</linearGradient>
</defs>
</svg>
