<svg width="25" height="24" viewBox="0 0 25 24" fill="none" xmlns="http://www.w3.org/2000/svg">
<path d="M17.9633 5.49V6.23L14.4233 4.18C13.0833 3.41 11.2133 3.41 9.88332 4.18L6.34332 6.24V5.49C6.34332 3.24 7.57332 2 9.82332 2H14.4833C16.7333 2 17.9633 3.24 17.9633 5.49Z" fill="#5388FF"/>
<path d="M17.9933 7.96999L17.8533 7.89999L16.4933 7.11999L13.6733 5.48999C12.8133 4.98999 11.4933 4.98999 10.6333 5.48999L7.81332 7.10999L6.45332 7.90999L6.27332 7.99999C4.52332 9.17999 4.40332 9.39999 4.40332 11.29V15.81C4.40332 17.7 4.52332 17.92 6.31332 19.13L10.6333 21.62C11.0633 21.88 11.6033 21.99 12.1533 21.99C12.6933 21.99 13.2433 21.87 13.6733 21.62L18.0333 19.1C19.7933 17.92 19.9033 17.71 19.9033 15.81V11.29C19.9033 9.39999 19.7833 9.17999 17.9933 7.96999ZM14.9433 13.5L14.3333 14.25C14.2333 14.36 14.1633 14.57 14.1733 14.72L14.2333 15.68C14.2733 16.27 13.8533 16.57 13.3033 16.36L12.4133 16C12.2733 15.95 12.0433 15.95 11.9033 16L11.0133 16.35C10.4633 16.57 10.0433 16.26 10.0833 15.67L10.1433 14.71C10.1533 14.56 10.0833 14.35 9.98332 14.24L9.36332 13.5C8.98332 13.05 9.15332 12.55 9.72332 12.4L10.6533 12.16C10.8033 12.12 10.9733 11.98 11.0533 11.86L11.5733 11.06C11.8933 10.56 12.4033 10.56 12.7333 11.06L13.2533 11.86C13.3333 11.99 13.5133 12.12 13.6533 12.16L14.5833 12.4C15.1533 12.55 15.3233 13.05 14.9433 13.5Z" fill="#5388FF"/>
</svg>
