<svg width="12" height="12" viewBox="0 0 12 12" fill="none" xmlns="http://www.w3.org/2000/svg">
<path d="M8.37511 1.78V1C8.37511 0.795 8.20511 0.625 8.00011 0.625C7.79511 0.625 7.62511 0.795 7.62511 1V1.75H4.37511V1C4.37511 0.795 4.20511 0.625 4.00011 0.625C3.79511 0.625 3.62511 0.795 3.62511 1V1.78C2.27511 1.905 1.62011 2.71 1.52011 3.905C1.51011 4.05 1.63011 4.17 1.77011 4.17H10.2301C10.3751 4.17 10.4951 4.045 10.4801 3.905C10.3801 2.71 9.72511 1.905 8.37511 1.78Z" fill="url(#paint0_linear_1695_13792)"/>
<path d="M10 4.92H2C1.725 4.92 1.5 5.145 1.5 5.42V8.5C1.5 10 2.25 11 4 11H8C9.75 11 10.5 10 10.5 8.5V5.42C10.5 5.145 10.275 4.92 10 4.92ZM4.605 9.105C4.58 9.125 4.555 9.15 4.53 9.165C4.5 9.185 4.47 9.2 4.44 9.21C4.41 9.225 4.38 9.235 4.35 9.24C4.315 9.245 4.285 9.25 4.25 9.25C4.185 9.25 4.12 9.235 4.06 9.21C3.995 9.185 3.945 9.15 3.895 9.105C3.805 9.01 3.75 8.88 3.75 8.75C3.75 8.62 3.805 8.49 3.895 8.395C3.945 8.35 3.995 8.315 4.06 8.29C4.15 8.25 4.25 8.24 4.35 8.26C4.38 8.265 4.41 8.275 4.44 8.29C4.47 8.3 4.5 8.315 4.53 8.335C4.555 8.355 4.58 8.375 4.605 8.395C4.695 8.49 4.75 8.62 4.75 8.75C4.75 8.88 4.695 9.01 4.605 9.105ZM4.605 7.355C4.51 7.445 4.38 7.5 4.25 7.5C4.12 7.5 3.99 7.445 3.895 7.355C3.805 7.26 3.75 7.13 3.75 7C3.75 6.87 3.805 6.74 3.895 6.645C4.035 6.505 4.255 6.46 4.44 6.54C4.505 6.565 4.56 6.6 4.605 6.645C4.695 6.74 4.75 6.87 4.75 7C4.75 7.13 4.695 7.26 4.605 7.355ZM6.355 9.105C6.26 9.195 6.13 9.25 6 9.25C5.87 9.25 5.74 9.195 5.645 9.105C5.555 9.01 5.5 8.88 5.5 8.75C5.5 8.62 5.555 8.49 5.645 8.395C5.83 8.21 6.17 8.21 6.355 8.395C6.445 8.49 6.5 8.62 6.5 8.75C6.5 8.88 6.445 9.01 6.355 9.105ZM6.355 7.355C6.33 7.375 6.305 7.395 6.28 7.415C6.25 7.435 6.22 7.45 6.19 7.46C6.16 7.475 6.13 7.485 6.1 7.49C6.065 7.495 6.035 7.5 6 7.5C5.87 7.5 5.74 7.445 5.645 7.355C5.555 7.26 5.5 7.13 5.5 7C5.5 6.87 5.555 6.74 5.645 6.645C5.69 6.6 5.745 6.565 5.81 6.54C5.995 6.46 6.215 6.505 6.355 6.645C6.445 6.74 6.5 6.87 6.5 7C6.5 7.13 6.445 7.26 6.355 7.355ZM8.105 9.105C8.01 9.195 7.88 9.25 7.75 9.25C7.62 9.25 7.49 9.195 7.395 9.105C7.305 9.01 7.25 8.88 7.25 8.75C7.25 8.62 7.305 8.49 7.395 8.395C7.58 8.21 7.92 8.21 8.105 8.395C8.195 8.49 8.25 8.62 8.25 8.75C8.25 8.88 8.195 9.01 8.105 9.105ZM8.105 7.355C8.08 7.375 8.055 7.395 8.03 7.415C8 7.435 7.97 7.45 7.94 7.46C7.91 7.475 7.88 7.485 7.85 7.49C7.815 7.495 7.78 7.5 7.75 7.5C7.62 7.5 7.49 7.445 7.395 7.355C7.305 7.26 7.25 7.13 7.25 7C7.25 6.87 7.305 6.74 7.395 6.645C7.445 6.6 7.495 6.565 7.56 6.54C7.65 6.5 7.75 6.49 7.85 6.51C7.88 6.515 7.91 6.525 7.94 6.54C7.97 6.55 8 6.565 8.03 6.585C8.055 6.605 8.08 6.625 8.105 6.645C8.195 6.74 8.25 6.87 8.25 7C8.25 7.13 8.195 7.26 8.105 7.355Z" fill="url(#paint1_linear_1695_13792)"/>
<defs>
<linearGradient id="paint0_linear_1695_13792" x1="6.00046" y1="0.625" x2="6.00046" y2="4.17" gradientUnits="userSpaceOnUse">
<stop stop-color="#6595FF"/>
<stop offset="1" stop-color="#407BFF"/>
</linearGradient>
<linearGradient id="paint1_linear_1695_13792" x1="6" y1="4.92" x2="6" y2="11" gradientUnits="userSpaceOnUse">
<stop stop-color="#6595FF"/>
<stop offset="1" stop-color="#407BFF"/>
</linearGradient>
</defs>
</svg>
