<svg width="30" height="30" viewBox="0 0 30 30" fill="none" xmlns="http://www.w3.org/2000/svg">
<circle opacity="0.2" cx="15" cy="15" r="15" fill="url(#paint0_linear_3759_17538)"/>
<g clip-path="url(#clip0_3759_17538)">
<path d="M20.79 14.474C20.6505 14.474 20.5166 14.4185 20.4179 14.3198C20.3192 14.2211 20.2637 14.0873 20.2637 13.9477C20.2626 12.8313 19.8186 11.761 19.0293 10.9716C18.2399 10.1822 17.1696 9.73827 16.0532 9.73715C15.9136 9.73715 15.7797 9.6817 15.681 9.583C15.5823 9.48429 15.5269 9.35042 15.5269 9.21084C15.5269 9.07125 15.5823 8.93738 15.681 8.83867C15.7797 8.73997 15.9136 8.68452 16.0532 8.68452C17.4486 8.68605 18.7864 9.24105 19.7731 10.2278C20.7598 11.2145 21.3148 12.5523 21.3164 13.9477C21.3164 14.0873 21.2609 14.2211 21.1622 14.3198C21.0635 14.4185 20.9296 14.474 20.79 14.474ZM19.2111 13.9477C19.2111 13.1102 18.8784 12.3069 18.2862 11.7147C17.6939 11.1225 16.8907 10.7898 16.0532 10.7898C15.9136 10.7898 15.7797 10.8452 15.681 10.9439C15.5823 11.0426 15.5269 11.1765 15.5269 11.3161C15.5269 11.4557 15.5823 11.5896 15.681 11.6883C15.7797 11.787 15.9136 11.8424 16.0532 11.8424C16.6115 11.8424 17.147 12.0642 17.5418 12.459C17.9367 12.8538 18.1585 13.3893 18.1585 13.9477C18.1585 14.0873 18.2139 14.2211 18.3126 14.3198C18.4113 14.4185 18.5452 14.474 18.6848 14.474C18.8244 14.474 18.9582 14.4185 19.0569 14.3198C19.1556 14.2211 19.2111 14.0873 19.2111 13.9477ZM20.36 20.3498L20.839 19.7977C21.1438 19.4919 21.315 19.0776 21.315 18.6458C21.315 18.214 21.1438 17.7998 20.839 17.494C20.8227 17.4777 19.5564 16.5035 19.5564 16.5035C19.2524 16.2142 18.8487 16.0531 18.4291 16.0537C18.0095 16.0543 17.6063 16.2165 17.3032 16.5066L16.3 17.3519C15.4812 17.013 14.7373 16.5157 14.1112 15.8885C13.4851 15.2613 12.9891 14.5166 12.6516 13.6972L13.4937 12.6972C13.7841 12.3941 13.9465 11.9908 13.9472 11.571C13.9479 11.1513 13.7868 10.7475 13.4974 10.4435C13.4974 10.4435 12.5221 9.17873 12.5058 9.16241C12.2055 8.86018 11.7984 8.68822 11.3724 8.68369C10.9463 8.67916 10.5356 8.84242 10.229 9.1382L9.62372 9.66452C6.04794 13.8129 13.7479 21.4535 18.0332 21.3161C18.4659 21.3186 18.8948 21.2344 19.2944 21.0684C19.6941 20.9025 20.0564 20.6581 20.36 20.3498Z" fill="url(#paint1_linear_3759_17538)"/>
</g>
<defs>
<linearGradient id="paint0_linear_3759_17538" x1="15" y1="0" x2="15" y2="30" gradientUnits="userSpaceOnUse">
<stop stop-color="#6595FF"/>
<stop offset="1" stop-color="#407BFF"/>
</linearGradient>
<linearGradient id="paint1_linear_3759_17538" x1="15.0097" y1="8.68359" x2="15.0097" y2="21.3179" gradientUnits="userSpaceOnUse">
<stop stop-color="#6595FF"/>
<stop offset="1" stop-color="#407BFF"/>
</linearGradient>
<clipPath id="clip0_3759_17538">
<rect width="12.6316" height="12.6316" fill="white" transform="translate(8.68457 8.68555)"/>
</clipPath>
</defs>
</svg>
