<svg width="14" height="14" viewBox="0 0 14 14" fill="none" xmlns="http://www.w3.org/2000/svg">
<g clip-path="url(#clip0_3759_17358)">
<path d="M13.4168 6.41574C13.2621 6.41574 13.1138 6.35428 13.0044 6.24489C12.895 6.13549 12.8335 5.98712 12.8335 5.83241C12.8323 4.59511 12.3402 3.40884 11.4653 2.53394C10.5904 1.65904 9.40414 1.16698 8.16684 1.16574C8.01213 1.16574 7.86376 1.10428 7.75436 0.994886C7.64496 0.88549 7.58351 0.737116 7.58351 0.582407C7.58351 0.427697 7.64496 0.279324 7.75436 0.169928C7.86376 0.0605315 8.01213 -0.000926653 8.16684 -0.000926653C9.71341 0.000771778 11.1962 0.615899 12.2898 1.70949C13.3833 2.80309 13.9985 4.28583 14.0002 5.83241C14.0002 5.98712 13.9387 6.13549 13.8293 6.24489C13.7199 6.35428 13.5715 6.41574 13.4168 6.41574ZM11.6668 5.83241C11.6668 4.90415 11.2981 4.01391 10.6417 3.35753C9.98534 2.70116 9.0951 2.33241 8.16684 2.33241C8.01213 2.33241 7.86376 2.39387 7.75436 2.50326C7.64496 2.61266 7.58351 2.76103 7.58351 2.91574C7.58351 3.07045 7.64496 3.21882 7.75436 3.32822C7.86376 3.43762 8.01213 3.49907 8.16684 3.49907C8.78568 3.49907 9.37917 3.74491 9.81675 4.18249C10.2543 4.62008 10.5002 5.21357 10.5002 5.83241C10.5002 5.98712 10.5616 6.13549 10.671 6.24489C10.7804 6.35428 10.9288 6.41574 11.0835 6.41574C11.2382 6.41574 11.3866 6.35428 11.496 6.24489C11.6054 6.13549 11.6668 5.98712 11.6668 5.83241ZM12.9403 12.9281L13.4711 12.3162C13.809 11.9772 13.9987 11.5181 13.9987 11.0395C13.9987 10.5609 13.809 10.1019 13.4711 9.76291C13.453 9.74483 12.0495 8.66507 12.0495 8.66507C11.7127 8.34443 11.2652 8.16589 10.8002 8.16654C10.3351 8.1672 9.8882 8.34699 9.55226 8.66858L8.44042 9.60541C7.53286 9.2298 6.70844 8.67859 6.0145 7.98346C5.32057 7.28833 4.7708 6.46295 4.39676 5.55474L5.33009 4.44641C5.65192 4.11051 5.83193 3.6635 5.83269 3.19831C5.83345 2.73312 5.65491 2.28552 5.33417 1.94857C5.33417 1.94857 4.25326 0.546823 4.23517 0.52874C3.90235 0.19376 3.4511 0.00316952 2.97892 -0.00185136C2.50674 -0.00687225 2.05154 0.174079 1.71167 0.501907L1.04084 1.08524C-2.92233 5.68307 5.61184 14.1513 10.3613 13.9991C10.8409 14.0019 11.3162 13.9085 11.7592 13.7246C12.2021 13.5406 12.6037 13.2698 12.9403 12.9281Z" fill="white"/>
</g>
<defs>
<clipPath id="clip0_3759_17358">
<rect width="14" height="14" fill="white"/>
</clipPath>
</defs>
</svg>
