<svg width="30" height="27" viewBox="0 0 30 27" fill="none" xmlns="http://www.w3.org/2000/svg">
<path fill-rule="evenodd" clip-rule="evenodd" d="M25.1291 14.0571C25.1291 12.2365 24.9189 9.80396 24.7369 8.04529C24.6558 7.26196 24.0268 6.65192 23.2298 6.59508C22.8595 6.56866 22.4536 6.54055 22.0212 6.51185C20.8156 6.43185 19.7142 5.7809 19.0679 4.74879L17.8851 2.85979C17.5724 2.36032 17.0256 2.05714 16.4375 2.05714H11.2566C10.6685 2.05714 10.1217 2.36032 9.8089 2.85979L8.6261 4.74879C7.97984 5.7809 6.87839 6.43185 5.67278 6.51185C5.24039 6.54054 4.8345 6.56866 4.46416 6.59507C3.66725 6.65192 3.03822 7.26196 2.95715 8.04529C2.77513 9.80396 2.56495 12.2365 2.56495 14.0571C2.56495 15.8778 2.77513 18.3103 2.95715 20.069C3.03827 20.8528 3.6667 21.4623 4.46313 21.5191C6.9262 21.6948 10.9257 21.9429 13.847 21.9429C16.7683 21.9429 20.7678 21.6948 23.2309 21.5191C24.0273 21.4623 24.6557 20.8528 24.7369 20.069C24.9189 18.3103 25.1291 15.8778 25.1291 14.0571ZM26.7772 7.83292C26.9599 9.59816 27.1803 12.1218 27.1803 14.0571C27.1803 15.9925 26.9599 18.5161 26.7772 20.2814C26.592 22.0708 25.1532 23.4443 23.3764 23.5711C20.9125 23.7469 16.8484 24 13.847 24C10.8456 24 6.78146 23.7469 4.31759 23.5711C2.54077 23.4443 1.10203 22.0708 0.916827 20.2814C0.734129 18.5161 0.513672 15.9925 0.513672 14.0571C0.513672 12.1218 0.734129 9.59815 0.916828 7.83292C1.10208 6.04295 2.54229 4.66982 4.31862 4.54312C4.69201 4.51648 5.10129 4.48813 5.53735 4.4592C6.09366 4.42228 6.59615 4.12239 6.88891 3.65482L8.07172 1.76582C8.75976 0.666985 9.96274 2.50273e-08 11.2566 0L16.4375 6.36239e-08C17.7313 3.85967e-08 18.9342 0.666987 19.6223 1.76583L20.8051 3.65482C21.0979 4.12239 21.6003 4.42228 22.1567 4.4592C22.5927 4.48813 23.002 4.51648 23.3754 4.54312C25.1517 4.66983 26.5919 6.04296 26.7772 7.83292Z" fill="url(#paint0_linear_1_112)"/>
<path fill-rule="evenodd" clip-rule="evenodd" d="M13.847 10.2857C12.1477 10.2857 10.7701 11.6672 10.7701 13.3714C10.7701 15.0756 12.1477 16.4571 13.847 16.4571C15.5463 16.4571 16.9239 15.0756 16.9239 13.3714C16.9239 11.6672 15.5463 10.2857 13.847 10.2857ZM8.7188 13.3714C8.7188 10.5311 11.0148 8.22857 13.847 8.22857C16.6792 8.22857 18.9752 10.5311 18.9752 13.3714C18.9752 16.2118 16.6792 18.5143 13.847 18.5143C11.0148 18.5143 8.7188 16.2118 8.7188 13.3714Z" fill="url(#paint1_linear_1_112)"/>
<circle cx="23.8467" cy="21" r="6" fill="url(#paint2_linear_1_112)"/>
<path d="M26.8467 21.5647H24.4702V24H23.2232V21.5647H20.8467V20.4353H23.2232V18H24.4702V20.4353H26.8467V21.5647Z" fill="#D7E8F4"/>
<defs>
<linearGradient id="paint0_linear_1_112" x1="13.847" y1="0" x2="13.847" y2="24" gradientUnits="userSpaceOnUse">
<stop stop-color="#6595FF"/>
<stop offset="1" stop-color="#407BFF"/>
</linearGradient>
<linearGradient id="paint1_linear_1_112" x1="13.847" y1="0" x2="13.847" y2="24" gradientUnits="userSpaceOnUse">
<stop stop-color="#6595FF"/>
<stop offset="1" stop-color="#407BFF"/>
</linearGradient>
<linearGradient id="paint2_linear_1_112" x1="23.8467" y1="15" x2="23.8467" y2="27" gradientUnits="userSpaceOnUse">
<stop stop-color="#6595FF"/>
<stop offset="1" stop-color="#407BFF"/>
</linearGradient>
</defs>
</svg>
