<svg width="17" height="21" viewBox="0 0 17 21" fill="none" xmlns="http://www.w3.org/2000/svg">
<path d="M12.371 8.87836C12.5515 5.62974 7.4461 5.8984 8.95282 0.288843C8.95282 0.288843 5.48976 1.47432 5.9495 5.49875C6.10737 6.88159 5.57451 7.89298 5.57451 7.89298C5.0681 7.97532 4.32041 6.97797 4.64554 5.48843C4.64554 5.48843 2.80655 6.72486 2.74812 8.39443C2.68969 10.064 3.45787 11.8626 3.45787 11.8626C1.40691 11.3552 1.70756 8.65819 1.70756 8.65819C1.70756 8.65819 0.339317 10.3113 0.227185 13.5153C0.139949 16.0079 2.89695 20.0891 7.56859 20.2526C12.2402 20.4161 16.1139 17.0319 16.2234 13.9044C16.2713 12.5347 15.8546 10.7484 14.8522 9.74803C14.8522 9.74803 14.8959 12.4865 13.5068 12.3084C13.5068 12.3084 14.7829 8.78031 13.6343 7.10382C13.6343 7.10382 12.9909 8.84708 12.371 8.87836Z" fill="url(#paint0_linear_1695_10617)"/>
<path d="M12.4629 6.42712C13.9051 4.04669 10.554 3.59391 10.6002 2.10049C10.6002 2.10049 9.95247 3.61995 11.3335 4.72187C12.461 5.61479 12.4629 6.42712 12.4629 6.42712Z" fill="url(#paint1_linear_1695_10617)"/>
<path d="M5.48717 1.533C4.95485 2.00879 5.59238 4.07353 3.95245 4.82251C3.95245 4.82251 3.48551 2.56362 5.48717 1.533Z" fill="url(#paint2_linear_1695_10617)"/>
<path opacity="0.5" d="M1.43 9.46668C0.955488 10.1976 0.295159 11.5577 0.226645 13.5153C0.150108 15.7022 2.88143 19.8238 7.57731 19.9881C12.1641 20.1487 15.8469 16.846 15.95 13.9008C15.9872 12.8367 15.7318 11.4681 15.0929 10.4805C15.0233 11.0843 14.843 11.902 14.3614 12.3148C14.1112 12.5298 13.8048 12.6191 13.4727 12.5722L13.1345 12.5309L13.2484 12.2229C13.2615 12.1939 14.2376 9.43817 13.6592 7.76397C13.3835 8.36057 12.9199 9.12718 12.3853 9.14967L12.0815 9.16258L12.0978 8.86886C12.1647 7.6528 11.4178 6.97921 10.5532 6.20143C9.31821 5.08697 7.92457 3.82568 8.55932 0.769546C7.65699 1.24416 5.88741 2.5772 6.21701 5.46696C6.38473 6.91489 5.83225 7.9668 5.81243 8.0132L5.74752 8.13453L5.61339 8.15338C5.35726 8.1915 5.09415 8.08223 4.8596 7.85036C4.54331 7.52733 4.26699 6.92907 4.28285 6.12913C3.76871 6.60556 3.05419 7.43401 3.02024 8.40401C2.96449 9.99715 3.70422 11.7417 3.70966 11.7596L3.91698 12.2495L3.38768 12.1191C2.00436 11.7764 1.52729 10.5001 1.43 9.46668Z" fill="url(#paint3_linear_1695_10617)"/>
<path d="M10.5997 2.10048C10.4474 2.98394 10.7663 4.27235 11.333 4.72186C11.8524 5.13439 12.4286 5.83144 12.4563 6.4269C13.4257 4.73035 12.1696 4.04482 11.4453 3.76638C11.14 3.64974 10.592 3.01254 10.5997 2.10048Z" fill="url(#paint4_radial_1695_10617)"/>
<path d="M7.81592 1.74983C5.69728 4.73638 8.19584 8.05521 6.78301 9.94224C5.37017 11.8293 4.0694 9.99442 4.0209 8.78022C4.0209 8.78022 3.89599 12.6959 5.83535 14.3118C7.77472 15.9277 1.9575 15.3886 1.22373 13.4735C1.22373 13.4735 1.00379 19.7579 7.57801 19.988C14.1522 20.218 15.4537 14.4071 15.4537 14.4071C15.4537 14.4071 12.991 16.3044 11.4515 14.7026C11.4515 14.7026 12.7161 12.7162 13.0919 10.6457C13.0919 10.6457 12.2502 11.1224 10.9906 10.8841C10.9906 10.8841 11.7957 7.98696 10.3932 6.97847C8.59424 5.68534 7.13949 2.70322 7.81592 1.74983Z" fill="url(#paint5_linear_1695_10617)"/>
<path d="M8.19239 5.3653C7.09097 6.67463 9.02406 10.2032 6.81905 11.4975C5.59884 12.2141 4.94604 11.2789 4.94604 11.2789C4.94604 11.2789 5.21821 12.6893 6.45915 13.9805C7.70008 15.2718 4.42359 16.8464 1.88841 14.574C1.88841 14.574 2.60185 19.8433 8.71009 19.1742C15.4516 18.439 15.124 13.5834 15.124 13.5834C15.124 13.5834 13.2092 16.2945 10.6684 14.8754C10.6684 14.8754 12.3755 12.7279 12.4197 11.4639C12.4197 11.4639 11.2947 12.0603 10.0558 11.4048C10.0558 11.4048 10.7585 8.48637 10.059 8.02044C8.38146 6.89638 8.19239 5.3653 8.19239 5.3653Z" fill="url(#paint6_linear_1695_10617)"/>
<path opacity="0.5" d="M12.371 8.87836C12.5515 5.62974 7.4461 5.8984 8.95282 0.288843C8.95282 0.288843 5.48976 1.47432 5.9495 5.49875C6.10737 6.88159 5.57451 7.89298 5.57451 7.89298C5.0681 7.97532 4.32041 6.97797 4.64554 5.48843C4.64554 5.48843 2.80655 6.72486 2.74812 8.39443C2.68969 10.064 3.45787 11.8626 3.45787 11.8626C1.40691 11.3552 1.70756 8.65819 1.70756 8.65819C1.70756 8.65819 0.339317 10.3113 0.227185 13.5153C0.139949 16.0079 2.89695 20.0891 7.56859 20.2526C12.2402 20.4161 16.1139 17.0319 16.2234 13.9044C16.2713 12.5347 15.8546 10.7484 14.8522 9.74803C14.8522 9.74803 14.8959 12.4865 13.5068 12.3084C13.5068 12.3084 14.7829 8.78031 13.6343 7.10382C13.6343 7.10382 12.9909 8.84708 12.371 8.87836Z" fill="url(#paint7_radial_1695_10617)"/>
<path opacity="0.5" d="M12.371 8.87836C12.5515 5.62974 7.4461 5.8984 8.95282 0.288843C8.95282 0.288843 5.48976 1.47432 5.9495 5.49875C6.10737 6.88159 5.57451 7.89298 5.57451 7.89298C5.0681 7.97532 4.32041 6.97797 4.64554 5.48843C4.64554 5.48843 2.80655 6.72486 2.74812 8.39443C2.68969 10.064 3.45787 11.8626 3.45787 11.8626C1.40691 11.3552 1.70756 8.65819 1.70756 8.65819C1.70756 8.65819 0.339317 10.3113 0.227185 13.5153C0.139949 16.0079 2.89695 20.0891 7.56859 20.2526C12.2402 20.4161 16.1139 17.0319 16.2234 13.9044C16.2713 12.5347 15.8546 10.7484 14.8522 9.74803C14.8522 9.74803 14.8959 12.4865 13.5068 12.3084C13.5068 12.3084 14.7829 8.78031 13.6343 7.10382C13.6343 7.10382 12.9909 8.84708 12.371 8.87836Z" fill="url(#paint8_radial_1695_10617)"/>
<path d="M0.686815 12.1659C0.709929 15.4923 3.38816 19.5708 7.7932 19.725C12.1982 19.8791 14.5555 15.4471 14.7873 12.8124C14.7873 12.8124 13.9089 14.3356 12.0378 14.582C10.1667 14.8285 12.2737 11.4825 11.0417 9.41463C11.0417 9.41463 9.76726 12.8957 8.12675 12.9678C6.48624 13.0399 5.18469 10.534 5.23098 9.21126C5.23098 9.21126 4.14183 11.557 4.32401 13.4586C4.60513 16.3467 0.686815 12.1659 0.686815 12.1659Z" fill="url(#paint9_radial_1695_10617)"/>
<path opacity="0.5" d="M12.371 8.87836C12.5515 5.62974 7.4461 5.8984 8.95282 0.288843C8.95282 0.288843 5.48976 1.47432 5.9495 5.49875C6.10737 6.88159 5.57451 7.89298 5.57451 7.89298C5.0681 7.97532 4.32041 6.97797 4.64554 5.48843C4.64554 5.48843 2.80655 6.72486 2.74812 8.39443C2.68969 10.064 3.45787 11.8626 3.45787 11.8626C1.40691 11.3552 1.70756 8.65819 1.70756 8.65819C1.70756 8.65819 0.339317 10.3113 0.227185 13.5153C0.139949 16.0079 2.89695 20.0891 7.56859 20.2526C12.2402 20.4161 16.1139 17.0319 16.2234 13.9044C16.2713 12.5347 15.8546 10.7484 14.8522 9.74803C14.8522 9.74803 14.8959 12.4865 13.5068 12.3084C13.5068 12.3084 14.7829 8.78031 13.6343 7.10382C13.6343 7.10382 12.9909 8.84708 12.371 8.87836Z" fill="url(#paint10_radial_1695_10617)"/>
<path opacity="0.5" d="M12.4629 6.42712C13.9051 4.04669 10.554 3.59391 10.6002 2.10049C10.6002 2.10049 9.95247 3.61995 11.3335 4.72187C12.461 5.61479 12.4629 6.42712 12.4629 6.42712Z" fill="url(#paint11_radial_1695_10617)"/>
<path d="M5.48717 1.533C4.96091 2.009 5.23358 3.57832 3.95245 4.82251C3.95245 4.82251 3.48551 2.56362 5.48717 1.533Z" fill="url(#paint12_radial_1695_10617)"/>
<path opacity="0.5" d="M5.48717 1.533C4.95485 2.00879 5.59238 4.07353 3.95245 4.82251C3.95245 4.82251 3.48551 2.56362 5.48717 1.533Z" fill="url(#paint13_radial_1695_10617)"/>
<path opacity="0.5" d="M12.371 8.87836C12.5515 5.62974 7.4461 5.8984 8.95282 0.288843C8.95282 0.288843 5.48976 1.47432 5.9495 5.49875C6.10737 6.88159 5.57451 7.89298 5.57451 7.89298C5.0681 7.97532 4.32041 6.97797 4.64554 5.48843C4.64554 5.48843 2.80655 6.72486 2.74812 8.39443C2.68969 10.064 3.45787 11.8626 3.45787 11.8626C1.40691 11.3552 1.70756 8.65819 1.70756 8.65819C1.70756 8.65819 0.339317 10.3113 0.227185 13.5153C0.139949 16.0079 2.89695 20.0891 7.56859 20.2526C12.2402 20.4161 16.1139 17.0319 16.2234 13.9044C16.2713 12.5347 15.8546 10.7484 14.8522 9.74803C14.8522 9.74803 14.8959 12.4865 13.5068 12.3084C13.5068 12.3084 14.7829 8.78031 13.6343 7.10382C13.6343 7.10382 12.9909 8.84708 12.371 8.87836Z" fill="url(#paint14_radial_1695_10617)"/>
<path opacity="0.25" d="M12.371 8.87836C12.5515 5.62974 7.4461 5.8984 8.95282 0.288843C8.95282 0.288843 5.48976 1.47432 5.9495 5.49875C6.10737 6.88159 5.57451 7.89298 5.57451 7.89298C5.0681 7.97532 4.32041 6.97797 4.64554 5.48843C4.64554 5.48843 2.80655 6.72486 2.74812 8.39443C2.68969 10.064 3.45787 11.8626 3.45787 11.8626C1.40691 11.3552 1.70756 8.65819 1.70756 8.65819C1.70756 8.65819 0.339317 10.3113 0.227185 13.5153C0.139949 16.0079 2.89695 20.0891 7.56859 20.2526C12.2402 20.4161 16.1139 17.0319 16.2234 13.9044C16.2713 12.5347 15.8546 10.7484 14.8522 9.74803C14.8522 9.74803 14.8959 12.4865 13.5068 12.3084C13.5068 12.3084 14.7829 8.78031 13.6343 7.10382C13.6343 7.10382 12.9909 8.84708 12.371 8.87836Z" fill="url(#paint15_radial_1695_10617)"/>
<path opacity="0.25" d="M12.371 8.87836C12.5515 5.62974 7.4461 5.8984 8.95282 0.288843C8.95282 0.288843 5.48976 1.47432 5.9495 5.49875C6.10737 6.88159 5.57451 7.89298 5.57451 7.89298C5.0681 7.97532 4.32041 6.97797 4.64554 5.48843C4.64554 5.48843 2.80655 6.72486 2.74812 8.39443C2.68969 10.064 3.45787 11.8626 3.45787 11.8626C1.40691 11.3552 1.70756 8.65819 1.70756 8.65819C1.70756 8.65819 0.339317 10.3113 0.227185 13.5153C0.139949 16.0079 2.89695 20.0891 7.56859 20.2526C12.2402 20.4161 16.1139 17.0319 16.2234 13.9044C16.2713 12.5347 15.8546 10.7484 14.8522 9.74803C14.8522 9.74803 14.8959 12.4865 13.5068 12.3084C13.5068 12.3084 14.7829 8.78031 13.6343 7.10382C13.6343 7.10382 12.9909 8.84708 12.371 8.87836Z" fill="url(#paint16_radial_1695_10617)"/>
<path opacity="0.25" d="M12.371 8.87836C12.5515 5.62974 7.4461 5.8984 8.95282 0.288843C8.95282 0.288843 5.48976 1.47432 5.9495 5.49875C6.10737 6.88159 5.57451 7.89298 5.57451 7.89298C5.0681 7.97532 4.32041 6.97797 4.64554 5.48843C4.64554 5.48843 2.80655 6.72486 2.74812 8.39443C2.68969 10.064 3.45787 11.8626 3.45787 11.8626C1.40691 11.3552 1.70756 8.65819 1.70756 8.65819C1.70756 8.65819 0.339317 10.3113 0.227185 13.5153C0.139949 16.0079 2.89695 20.0891 7.56859 20.2526C12.2402 20.4161 16.1139 17.0319 16.2234 13.9044C16.2713 12.5347 15.8546 10.7484 14.8522 9.74803C14.8522 9.74803 14.8959 12.4865 13.5068 12.3084C13.5068 12.3084 14.7829 8.78031 13.6343 7.10382C13.6343 7.10382 12.9909 8.84708 12.371 8.87836Z" fill="url(#paint17_radial_1695_10617)"/>
<defs>
<linearGradient id="paint0_linear_1695_10617" x1="9.0011" y1="20.8559" x2="6.41582" y2="-5.41171" gradientUnits="userSpaceOnUse">
<stop stop-color="#FF0000"/>
<stop offset="0.2317" stop-color="#FF1500"/>
<stop offset="0.7367" stop-color="#FF3D00"/>
<stop offset="0.9987" stop-color="#FF4C00"/>
</linearGradient>
<linearGradient id="paint1_linear_1695_10617" x1="13.374" y1="20.4255" x2="10.7887" y2="-5.84212" gradientUnits="userSpaceOnUse">
<stop stop-color="#FF0000"/>
<stop offset="0.2317" stop-color="#FF1500"/>
<stop offset="0.7367" stop-color="#FF3D00"/>
<stop offset="0.9987" stop-color="#FF4C00"/>
</linearGradient>
<linearGradient id="paint2_linear_1695_10617" x1="6.62631" y1="21.0895" x2="4.04103" y2="-5.17815" gradientUnits="userSpaceOnUse">
<stop stop-color="#FF0000"/>
<stop offset="0.2317" stop-color="#FF1500"/>
<stop offset="0.7367" stop-color="#FF3D00"/>
<stop offset="0.9987" stop-color="#FF4C00"/>
</linearGradient>
<linearGradient id="paint3_linear_1695_10617" x1="9.05617" y1="16.4038" x2="2.15863" y2="-6.50079" gradientUnits="userSpaceOnUse">
<stop stop-color="#FF8000"/>
<stop offset="0.6388" stop-color="#FF5B00"/>
<stop offset="0.9987" stop-color="#FF4C00"/>
</linearGradient>
<radialGradient id="paint4_radial_1695_10617" cx="0" cy="0" r="1" gradientUnits="userSpaceOnUse" gradientTransform="translate(13.173 -1.77811) rotate(2.00443) scale(10.8229 10.5006)">
<stop offset="0.00134333" stop-color="#FFED1C" stop-opacity="0.6"/>
<stop offset="0.9477" stop-color="#FFED1C" stop-opacity="0.0264782"/>
<stop offset="0.9914" stop-color="#FFED1C" stop-opacity="0"/>
</radialGradient>
<linearGradient id="paint5_linear_1695_10617" x1="6.43031" y1="1.28526" x2="8.63795" y2="17.3835" gradientUnits="userSpaceOnUse">
<stop stop-color="#FF8000"/>
<stop offset="0.022669" stop-color="#FE7F02" stop-opacity="0.9773"/>
<stop offset="0.6663" stop-color="#ED582A" stop-opacity="0.3337"/>
<stop offset="1" stop-color="#E74939" stop-opacity="0"/>
</linearGradient>
<linearGradient id="paint6_linear_1695_10617" x1="8.10475" y1="18.625" x2="9.09456" y2="7.4288" gradientUnits="userSpaceOnUse">
<stop stop-color="#FFBC47"/>
<stop offset="0.1869" stop-color="#FFB137" stop-opacity="0.8131"/>
<stop offset="0.7223" stop-color="#FF940F" stop-opacity="0.2777"/>
<stop offset="1" stop-color="#FF8900" stop-opacity="0"/>
</linearGradient>
<radialGradient id="paint7_radial_1695_10617" cx="0" cy="0" r="1" gradientUnits="userSpaceOnUse" gradientTransform="translate(8.05334 15.5929) rotate(2.00443) scale(8.37212 6.59409)">
<stop offset="0.00134333" stop-color="#FFBC47"/>
<stop offset="0.2941" stop-color="#FFBF4B" stop-opacity="0.7068"/>
<stop offset="0.5624" stop-color="#FEC656" stop-opacity="0.4382"/>
<stop offset="0.8201" stop-color="#FCD368" stop-opacity="0.1801"/>
<stop offset="1" stop-color="#FBE07A" stop-opacity="0"/>
</radialGradient>
<radialGradient id="paint8_radial_1695_10617" cx="0" cy="0" r="1" gradientUnits="userSpaceOnUse" gradientTransform="translate(8.06502 15.2592) rotate(2.00443) scale(8.11414 6.3909)">
<stop offset="0.00134333" stop-color="white"/>
<stop offset="1" stop-color="white" stop-opacity="0"/>
</radialGradient>
<radialGradient id="paint9_radial_1695_10617" cx="0" cy="0" r="1" gradientUnits="userSpaceOnUse" gradientTransform="translate(4.45838 16.586) rotate(2.00443) scale(9.96765 11.2597)">
<stop offset="0.00134333" stop-color="#FFED1C" stop-opacity="0.6"/>
<stop offset="0.9477" stop-color="#FFED1C" stop-opacity="0.0264782"/>
<stop offset="0.9914" stop-color="#FFED1C" stop-opacity="0"/>
</radialGradient>
<radialGradient id="paint10_radial_1695_10617" cx="0" cy="0" r="1" gradientUnits="userSpaceOnUse" gradientTransform="translate(8.0655 15.2584) rotate(94.9805) scale(3.05668 2.55703)">
<stop offset="0.00134333" stop-color="white"/>
<stop offset="1" stop-color="white" stop-opacity="0"/>
</radialGradient>
<radialGradient id="paint11_radial_1695_10617" cx="0" cy="0" r="1" gradientUnits="userSpaceOnUse" gradientTransform="translate(10.269 2.08332) rotate(2.00443) scale(3.57579 3.46931)">
<stop offset="0.00134333" stop-color="#FFED1C"/>
<stop offset="0.1997" stop-color="#FFEE2B" stop-opacity="0.8013"/>
<stop offset="0.5839" stop-color="#FFF254" stop-opacity="0.4167"/>
<stop offset="1" stop-color="#FFF686" stop-opacity="0"/>
</radialGradient>
<radialGradient id="paint12_radial_1695_10617" cx="0" cy="0" r="1" gradientUnits="userSpaceOnUse" gradientTransform="translate(4.31745 3.54538) rotate(-53.6043) scale(2.83689 0.651613)">
<stop offset="0.00134333" stop-color="#FFED1C" stop-opacity="0.6"/>
<stop offset="0.9477" stop-color="#FFED1C" stop-opacity="0.0264782"/>
<stop offset="0.9914" stop-color="#FFED1C" stop-opacity="0"/>
</radialGradient>
<radialGradient id="paint13_radial_1695_10617" cx="0" cy="0" r="1" gradientUnits="userSpaceOnUse" gradientTransform="translate(4.96778 1.36313) rotate(97.2161) scale(2.52573 1.04696)">
<stop offset="0.00134333" stop-color="#FFED1C"/>
<stop offset="0.1997" stop-color="#FFEE2B" stop-opacity="0.8013"/>
<stop offset="0.5839" stop-color="#FFF254" stop-opacity="0.4167"/>
<stop offset="1" stop-color="#FFF686" stop-opacity="0"/>
</radialGradient>
<radialGradient id="paint14_radial_1695_10617" cx="0" cy="0" r="1" gradientUnits="userSpaceOnUse" gradientTransform="translate(9.49056 1.61063) rotate(2.00443) scale(11.1576 10.8253)">
<stop offset="0.00134333" stop-color="#FF4C00"/>
<stop offset="0.135" stop-color="#FF5B0C" stop-opacity="0.8661"/>
<stop offset="0.3941" stop-color="#FF842C" stop-opacity="0.6067"/>
<stop offset="0.7491" stop-color="#FFC45F" stop-opacity="0.2512"/>
<stop offset="1" stop-color="#FFF686" stop-opacity="0"/>
</radialGradient>
<radialGradient id="paint15_radial_1695_10617" cx="0" cy="0" r="1" gradientUnits="userSpaceOnUse" gradientTransform="translate(14.2554 10.5529) rotate(2.00443) scale(5.92224 5.74588)">
<stop offset="0.00134333" stop-color="#FFED1C"/>
<stop offset="0.1997" stop-color="#FFEE2B" stop-opacity="0.8013"/>
<stop offset="0.5839" stop-color="#FFF254" stop-opacity="0.4167"/>
<stop offset="1" stop-color="#FFF686" stop-opacity="0"/>
</radialGradient>
<radialGradient id="paint16_radial_1695_10617" cx="0" cy="0" r="1" gradientUnits="userSpaceOnUse" gradientTransform="translate(2.06824 12.1755) rotate(2.00443) scale(6.31235 6.12438)">
<stop offset="0.00134333" stop-color="#FFED1C"/>
<stop offset="0.1997" stop-color="#FFEE2B" stop-opacity="0.8013"/>
<stop offset="0.5839" stop-color="#FFF254" stop-opacity="0.4167"/>
<stop offset="1" stop-color="#FFF686" stop-opacity="0"/>
</radialGradient>
<radialGradient id="paint17_radial_1695_10617" cx="0" cy="0" r="1" gradientUnits="userSpaceOnUse" gradientTransform="translate(8.1146 11.1485) rotate(87.9956) scale(10.4921 6.57201)">
<stop stop-color="#FF4C00" stop-opacity="0"/>
<stop offset="0.9874" stop-color="#FF4C00" stop-opacity="0.9888"/>
<stop offset="0.9987" stop-color="#FF4C00"/>
</radialGradient>
</defs>
</svg>
