<svg width="31" height="30" viewBox="0 0 31 30" fill="none" xmlns="http://www.w3.org/2000/svg">
<rect opacity="0.1" x="0.15332" width="30" height="30" rx="4" fill="#8696AE"/>
<path d="M22.6533 23.3333H7.65332C7.31165 23.3333 7.02832 23.05 7.02832 22.7083C7.02832 22.3667 7.31165 22.0833 7.65332 22.0833H22.6533C22.995 22.0833 23.2783 22.3667 23.2783 22.7083C23.2783 23.05 22.995 23.3333 22.6533 23.3333Z" fill="#8696AE"/>
<path d="M21.0033 7.9C19.3866 6.28333 17.8033 6.24166 16.145 7.9L15.1366 8.90833C15.0533 8.99166 15.02 9.125 15.0533 9.24166C15.6866 11.45 17.4533 13.2167 19.6616 13.85C19.695 13.8583 19.7283 13.8667 19.7616 13.8667C19.8533 13.8667 19.9366 13.8333 20.0033 13.7667L21.0033 12.7583C21.8283 11.9417 22.2283 11.15 22.2283 10.35C22.2366 9.525 21.8366 8.725 21.0033 7.9Z" fill="#8696AE"/>
<path d="M18.1616 14.6083C17.92 14.4917 17.6866 14.375 17.4616 14.2417C17.2783 14.1333 17.1033 14.0167 16.9283 13.8917C16.7866 13.8 16.62 13.6667 16.4616 13.5333C16.445 13.525 16.3866 13.475 16.32 13.4083C16.045 13.175 15.7366 12.875 15.4616 12.5417C15.4366 12.525 15.395 12.4667 15.3366 12.3917C15.2533 12.2917 15.1116 12.125 14.9866 11.9333C14.8866 11.8083 14.77 11.625 14.6616 11.4417C14.5283 11.2167 14.4116 10.9917 14.295 10.7583C14.142 10.4305 13.7118 10.3332 13.456 10.5889L8.76997 15.275C8.66163 15.3833 8.56163 15.5917 8.53663 15.7333L8.08663 18.925C8.0033 19.4917 8.16163 20.025 8.51163 20.3833C8.81163 20.675 9.2283 20.8333 9.6783 20.8333C9.7783 20.8333 9.8783 20.825 9.9783 20.8083L13.1783 20.3583C13.3283 20.3333 13.5366 20.2333 13.6366 20.125L18.3304 15.4312C18.5811 15.1806 18.4869 14.7493 18.1616 14.6083Z" fill="#8696AE"/>
</svg>
