<svg width="21" height="16" viewBox="0 0 21 16" fill="none" xmlns="http://www.w3.org/2000/svg">
<path d="M20.0381 4.58527V13.0731C20.0381 14.4389 18.9114 15.6097 17.4774 15.7072C15.3265 15.9023 12.3562 15.9999 10.1029 15.9999C7.84956 15.9999 4.87925 15.8048 2.72833 15.7072C1.29439 15.6097 0.167725 14.4389 0.167725 13.0731V4.58527L1.70409 5.36576L8.77137 9.07308C9.18107 9.2682 9.69319 9.36576 10.1029 9.36576C10.5126 9.36576 11.0247 9.2682 11.4344 9.07308L18.5017 5.36576L20.0381 4.58527Z" fill="url(#paint0_linear_1957_7144)"/>
<path d="M19.9357 2.43898C19.9357 2.6341 19.8332 2.92678 19.6284 3.02434L18.3993 3.60971L10.615 7.70727C10.2053 7.90239 9.79565 7.90239 9.38595 7.70727L0.372603 3.02434C0.167754 2.92678 -0.037095 2.73166 0.0653294 2.53654C0.270178 1.36581 1.29442 0.390198 2.62594 0.292637C4.77685 0.0975151 7.74716 -4.57764e-05 10.0005 -4.57764e-05C12.2538 -4.57764e-05 15.3266 0.195076 17.3751 0.292637C18.7066 0.390198 19.7308 1.26825 19.9357 2.43898Z" fill="url(#paint1_linear_1957_7144)"/>
<defs>
<linearGradient id="paint0_linear_1957_7144" x1="10.0381" y1="-4.57764e-05" x2="10.0381" y2="15.9999" gradientUnits="userSpaceOnUse">
<stop stop-color="#6595FF"/>
<stop offset="1" stop-color="#407BFF"/>
</linearGradient>
<linearGradient id="paint1_linear_1957_7144" x1="10.0381" y1="-4.57764e-05" x2="10.0381" y2="15.9999" gradientUnits="userSpaceOnUse">
<stop stop-color="#6595FF"/>
<stop offset="1" stop-color="#407BFF"/>
</linearGradient>
</defs>
</svg>
