<svg width="211" height="158" viewBox="0 0 211 158" fill="none" xmlns="http://www.w3.org/2000/svg">
<g clip-path="url(#clip0_1812_15915)">
<path d="M154.071 150.124H149.873L147.875 133.9H154.071V150.124Z" fill="#9E616A"/>
<path d="M156.287 157.412H153.277L152.739 154.564L151.363 157.412H143.378C142.995 157.412 142.622 157.289 142.314 157.062C142.005 156.835 141.778 156.515 141.664 156.148C141.55 155.782 141.556 155.389 141.681 155.027C141.805 154.664 142.043 154.351 142.358 154.133L148.734 149.721V146.842L155.442 147.243L156.287 157.412Z" fill="#2F2E41"/>
<path d="M179.014 144.815L175.645 147.325L164.378 135.501L169.351 131.796L179.014 144.815Z" fill="#9E616A"/>
<path d="M185.132 149.339L182.716 151.139L180.589 149.175L181.181 152.283L174.773 157.057C174.466 157.286 174.094 157.41 173.711 157.412C173.328 157.414 172.955 157.294 172.645 157.068C172.336 156.842 172.107 156.523 171.991 156.158C171.875 155.792 171.879 155.399 172.002 155.036L174.491 147.683L172.776 145.373L178.397 141.685L185.132 149.339Z" fill="#2F2E41"/>
<path d="M158.959 66.4163C158.959 66.4163 166.925 73.3112 163.25 92.9671L158.763 112.227L173.396 136.549L168.73 142.235L149.707 115.91L142.813 99.709L140.879 70.875L158.959 66.4163Z" fill="#2F2E41"/>
<path d="M146.613 104.326L146.134 111.76L147.6 143.439L154.499 142.235L155.818 119.68L146.613 104.326Z" fill="#2F2E41"/>
<path d="M58.0742 153.938L61.8288 153.938L63.6147 139.429L58.0737 139.43L58.0742 153.938Z" fill="#FFB6B6"/>
<path d="M57.1167 152.71L58.1735 152.71L62.2993 151.029L64.5106 152.71H64.5108C65.7605 152.71 66.9589 153.208 67.8426 154.093C68.7262 154.978 69.2227 156.179 69.2228 157.431V157.584L57.1169 157.585L57.1167 152.71Z" fill="#2F2E41"/>
<path d="M72.6235 151.568L76.2856 152.396L81.2178 138.638L75.8129 137.416L72.6235 151.568Z" fill="#FFB6B6"/>
<path d="M71.9596 150.159L72.9905 150.392L77.3845 149.663L79.172 151.79L79.1722 151.79C80.3912 152.066 81.4508 152.816 82.1181 153.874C82.7854 154.933 83.0057 156.214 82.7305 157.435L82.6968 157.585L70.8882 154.913L71.9596 150.159Z" fill="#2F2E41"/>
<path d="M53.3191 65.2393C51.5588 70.5582 51.7449 76.3318 53.7422 82.5285L54.596 117.417C54.596 117.417 53.3239 140.297 57.4287 148.348H63.3818L66.3292 115.328L66.6993 93.1647L79.4621 111.863L71.3331 147.808L78.66 148.464L91.8512 109.455L75.5759 71.6104L53.3191 65.2393Z" fill="#2F2E41"/>
<path d="M121.972 50.0886C126.525 45.9777 133.298 43.9106 138.979 46.2157C133.151 49.4573 128.656 54.6597 126.288 60.9023C125.384 63.3132 124.628 66.089 122.404 67.3797C121.02 68.1828 119.298 68.222 117.746 67.8344C116.194 67.4466 114.771 66.6694 113.368 65.8999L112.969 65.8909C114.761 60.0182 117.418 54.1996 121.972 50.0886Z" fill="#E6E6E6"/>
<path d="M138.947 46.3406C133.915 46.992 129.217 49.2153 125.518 52.6947C124.708 53.4295 124.02 54.2876 123.477 55.2374C122.978 56.1797 122.74 57.2387 122.788 58.3043C122.812 59.2987 122.952 60.3131 122.735 61.2962C122.617 61.7978 122.394 62.2686 122.081 62.6778C121.768 63.0869 121.372 63.4252 120.919 63.6704C119.808 64.3107 118.532 64.5125 117.279 64.6665C115.886 64.8375 114.438 64.9929 113.233 65.7753C113.087 65.8701 112.948 65.6375 113.094 65.5429C115.191 64.1818 117.844 64.677 120.098 63.7686C121.15 63.3447 122.081 62.6007 122.411 61.4757C122.699 60.492 122.555 59.4458 122.521 58.4391C122.46 57.4003 122.653 56.3621 123.084 55.4152C123.577 54.4408 124.231 53.5576 125.02 52.8033C126.768 51.0767 128.776 49.6362 130.971 48.5347C133.469 47.2636 136.166 46.43 138.944 46.0699C139.116 46.0477 139.118 46.3185 138.947 46.3406Z" fill="white"/>
<path d="M126.643 51.504C126.145 50.8031 125.911 49.9474 125.984 49.0899C126.057 48.2324 126.432 47.4288 127.042 46.8228C127.166 46.7005 127.362 46.8876 127.238 47.01C126.669 47.5733 126.319 48.3218 126.253 49.1205C126.186 49.9192 126.407 50.7153 126.875 51.3653C126.977 51.5067 126.744 51.6446 126.643 51.504Z" fill="white"/>
<path d="M122.709 57.8017C124.438 58.1087 126.219 57.7514 127.697 56.8011C127.843 56.7068 127.982 56.9394 127.835 57.0335C126.296 58.0195 124.441 58.3875 122.643 58.0642C122.471 58.0332 122.538 57.771 122.709 57.8017Z" fill="white"/>
<path d="M133.491 47.6219C133.628 47.9333 133.839 48.206 134.107 48.4153C134.374 48.6247 134.69 48.7641 135.024 48.8212C135.196 48.8499 135.129 49.1122 134.958 49.0836C134.589 49.0189 134.241 48.8644 133.945 48.6338C133.648 48.4031 133.413 48.1034 133.259 47.7606C133.242 47.7295 133.237 47.693 133.246 47.6586C133.255 47.6241 133.276 47.5942 133.306 47.575C133.337 47.5568 133.373 47.5515 133.408 47.5603C133.443 47.5691 133.473 47.5912 133.491 47.6219Z" fill="white"/>
<path d="M145.235 66.0407C145.127 66.0258 145.019 66.0109 144.91 65.9977C143.46 65.8049 141.998 65.7305 140.536 65.7751C140.423 65.7767 140.309 65.7801 140.196 65.785C136.676 65.93 133.214 66.7285 129.985 68.1399C128.7 68.7027 127.461 69.3626 126.276 70.1138C124.64 71.1514 122.949 72.4069 121.121 72.83C120.931 72.8763 120.738 72.9108 120.543 72.9332L112.988 66.3794C112.979 66.3559 112.967 66.334 112.958 66.3104L112.644 66.0625C112.702 66.0195 112.764 65.9761 112.822 65.9331C112.856 65.908 112.892 65.8844 112.925 65.8593C112.948 65.843 112.971 65.8268 112.991 65.8108C112.999 65.8054 113.007 65.8 113.013 65.7963C113.033 65.7803 113.053 65.7675 113.071 65.7533C113.414 65.5099 113.759 65.2686 114.107 65.0292C114.109 65.0275 114.109 65.0275 114.112 65.0272C116.743 63.1781 119.584 61.6482 122.574 60.4696C122.664 60.4356 122.755 60.3999 122.848 60.3689C124.195 59.8672 125.581 59.4765 126.991 59.2009C127.764 59.0525 128.544 58.9434 129.328 58.874C131.354 58.6985 133.394 58.8433 135.375 59.3032C139.323 60.2204 142.935 62.3926 145.074 65.7803C145.128 65.867 145.182 65.9523 145.235 66.0407Z" fill="#E6E6E6"/>
<path d="M145.135 66.1222C140.726 63.6072 135.638 62.548 130.594 63.0951C129.506 63.1935 128.441 63.4632 127.437 63.8941C126.472 64.3455 125.646 65.0475 125.043 65.9272C124.465 66.736 123.968 67.6304 123.203 68.2845C122.807 68.6134 122.346 68.8548 121.851 68.9927C121.355 69.1306 120.836 69.162 120.327 69.0847C119.054 68.9253 117.915 68.3173 116.821 67.6839C115.607 66.9806 114.357 66.2309 112.925 66.1286C112.751 66.1163 112.78 65.8472 112.954 65.8596C115.446 66.0375 117.266 68.0333 119.612 68.6678C120.707 68.9639 121.897 68.9313 122.836 68.2318C123.657 67.6202 124.172 66.6983 124.75 65.8742C125.325 65.0075 126.103 64.295 127.016 63.799C127.995 63.3182 129.048 63.0079 130.131 62.8813C132.565 62.5572 135.034 62.6186 137.448 63.063C140.207 63.5549 142.861 64.516 145.296 65.9045C145.446 65.9906 145.285 66.2076 145.135 66.1222Z" fill="white"/>
<path d="M132.208 62.8232C132.231 61.9629 132.559 61.1389 133.133 60.4983C133.706 59.8578 134.489 59.4424 135.34 59.3263C135.512 59.3035 135.556 59.5706 135.383 59.5936C134.591 59.7001 133.862 60.0872 133.329 60.6847C132.796 61.2823 132.494 62.0511 132.477 62.8524C132.473 63.0265 132.204 62.9964 132.208 62.8232Z" fill="white"/>
<path d="M125.282 65.4784C126.479 66.7664 128.115 67.5555 129.866 67.6882C130.04 67.7012 130.011 67.9702 129.837 67.9573C128.015 67.8158 126.314 66.9912 125.072 65.648C124.954 65.5199 125.165 65.351 125.282 65.4784Z" fill="white"/>
<path d="M140.009 63.8541C139.931 64.1851 139.936 64.5304 140.023 64.8589C140.111 65.1875 140.279 65.4891 140.512 65.7365C140.632 65.8631 140.421 66.0319 140.302 65.9062C140.046 65.6316 139.861 65.2983 139.763 64.9355C139.665 64.5727 139.657 64.1914 139.74 63.825C139.745 63.7898 139.763 63.7578 139.791 63.7355C139.819 63.7132 139.854 63.7023 139.889 63.705C139.925 63.709 139.957 63.727 139.98 63.7549C140.002 63.7828 140.012 63.8185 140.009 63.8541Z" fill="white"/>
<path d="M12.5404 153.675C12.1858 155.008 11.2539 156.118 10.1288 156.927C9.94541 157.059 9.75709 157.182 9.56631 157.297C9.50761 157.331 9.44891 157.368 9.38777 157.4C9.32173 157.439 9.2557 157.476 9.18966 157.51H3.89939C3.804 157.316 3.71107 157.12 3.61813 156.927C1.35087 152.153 -0.241348 147.002 0.0301362 141.756C0.137844 139.721 0.564557 137.716 1.29461 135.814C2.74742 132.023 5.39867 128.742 9.04536 127.09C9.13585 127.049 9.23124 127.007 9.32418 126.968C9.29483 127.073 9.26548 127.176 9.23613 127.281C8.8449 128.693 8.56844 130.135 8.40945 131.592C8.39477 131.704 8.38255 131.817 8.37276 131.932C8.0253 135.446 8.33383 138.993 9.2826 142.393C9.28505 142.401 9.28748 142.41 9.28994 142.418C9.49784 143.17 9.73916 143.911 10.0139 144.64C10.2291 145.216 10.4615 145.785 10.7158 146.343C11.7773 148.688 13.2008 151.188 12.5404 153.675Z" fill="#E6E6E6"/>
<path d="M9.39002 127.078C9.33866 127.147 9.28728 127.213 9.23593 127.282C8.16169 128.708 7.24949 130.25 6.5162 131.879C6.47707 131.959 6.44038 132.04 6.40859 132.124C5.40385 134.398 4.75858 136.815 4.49597 139.289C4.49313 139.306 4.4915 139.323 4.49108 139.34C4.42994 139.918 4.39325 140.502 4.37857 141.085C4.32419 142.178 4.44222 143.273 4.72832 144.329C4.98919 145.192 5.44632 145.982 6.06373 146.637C6.12487 146.704 6.18602 146.77 6.25206 146.833C6.30097 146.885 6.35478 146.936 6.40614 146.985C6.90019 147.458 7.44071 147.897 7.90542 148.404C8.11841 148.632 8.31076 148.878 8.48018 149.139C8.75057 149.578 8.92523 150.069 8.99268 150.58C9.06012 151.091 9.01883 151.61 8.87151 152.104C8.53888 153.344 7.77824 154.391 7.00047 155.388C6.61159 155.888 6.21048 156.393 5.86317 156.927C5.736 157.118 5.6186 157.311 5.51099 157.51H5.20282C5.30554 157.311 5.41805 157.118 5.54034 156.927C6.43306 155.518 7.70243 154.307 8.36035 152.756C8.80549 151.71 8.94001 150.524 8.37747 149.497C8.21261 149.198 8.01311 148.92 7.78314 148.669C7.33556 148.162 6.79993 147.728 6.31322 147.27C6.19093 147.154 6.07108 147.037 5.95613 146.914C5.34668 146.294 4.8764 145.55 4.5767 144.733C4.23729 143.696 4.07683 142.608 4.10221 141.516C4.10221 140.82 4.1389 140.119 4.20738 139.423C4.21472 139.335 4.2245 139.244 4.23429 139.154C4.73446 134.775 6.39558 130.609 9.04518 127.09C9.09409 127.022 9.14545 126.956 9.19681 126.889C9.30197 126.752 9.49519 126.943 9.39002 127.078Z" fill="white"/>
<path d="M4.33315 139.447C3.486 139.304 2.717 138.864 2.16351 138.206C1.61001 137.548 1.30805 136.714 1.31155 135.854C1.31202 135.819 1.32607 135.785 1.35073 135.76C1.3754 135.735 1.40876 135.721 1.44378 135.72C1.4788 135.719 1.51275 135.732 1.53848 135.756C1.56421 135.78 1.57971 135.813 1.58171 135.848C1.57697 136.649 1.85832 137.426 2.37499 138.038C2.89165 138.649 3.60959 139.056 4.39923 139.184C4.5708 139.212 4.50373 139.474 4.33315 139.447Z" fill="white"/>
<path d="M5.99589 146.687C7.43515 145.679 8.44236 144.164 8.81667 142.445C8.85362 142.275 9.11551 142.342 9.07861 142.512C8.68577 144.3 7.63442 145.874 6.13439 146.919C5.99134 147.019 5.85363 146.786 5.99589 146.687Z" fill="white"/>
<path d="M6.4353 131.85C6.75161 131.973 7.09361 132.016 7.43057 131.975C7.76754 131.933 8.08893 131.808 8.36588 131.612C8.50759 131.51 8.64516 131.743 8.50437 131.844C8.19738 132.06 7.84226 132.197 7.47007 132.244C7.09787 132.291 6.71991 132.246 6.36921 132.112C6.3351 132.102 6.306 132.08 6.28781 132.049C6.26962 132.019 6.26371 131.983 6.27129 131.948C6.28021 131.913 6.30245 131.883 6.33316 131.865C6.36387 131.847 6.40058 131.841 6.4353 131.85Z" fill="white"/>
<path d="M27.7384 136.554C27.6528 136.62 27.5648 136.686 27.4792 136.755C26.318 137.645 25.2309 138.629 24.2287 139.695C24.1505 139.776 24.0722 139.859 23.9964 139.943L23.9939 139.945C21.6176 142.53 19.7386 145.532 18.4517 148.801L18.4444 148.823C18.442 148.83 18.4395 148.835 18.4371 148.843C17.927 150.151 17.5157 151.496 17.2068 152.866C16.9084 154.204 16.6639 155.638 16.1967 156.927C16.1258 157.125 16.0475 157.321 15.9644 157.51H5.09033C5.12702 157.316 5.16615 157.12 5.20528 156.927C5.75844 154.087 6.62297 151.318 7.78316 148.669C7.82229 148.581 7.86142 148.492 7.90545 148.404C8.50438 147.095 9.20865 145.837 10.0113 144.643L10.0115 144.642L10.012 144.641L10.0128 144.64L10.0137 144.64C10.4545 143.988 10.9279 143.36 11.4323 142.756C12.7404 141.197 14.2855 139.854 16.0108 138.776C16.0206 138.769 16.0328 138.764 16.0426 138.757C19.4765 136.622 23.5463 135.606 27.4376 136.485H27.4401C27.5403 136.507 27.6382 136.529 27.7384 136.554Z" fill="#E6E6E6"/>
<path d="M27.7265 136.684C27.6434 136.706 27.5602 136.73 27.4795 136.755C25.7654 137.245 24.1109 137.925 22.5463 138.781C22.468 138.823 22.3898 138.867 22.3115 138.911C20.1493 140.12 18.1866 141.657 16.493 143.466C16.4916 143.468 16.4908 143.469 16.4905 143.471C16.4709 143.491 16.4489 143.513 16.4318 143.533C16.0405 143.954 15.6638 144.393 15.3067 144.844C14.6082 145.684 14.0454 146.629 13.6387 147.644C13.3279 148.49 13.2182 149.397 13.3183 150.293C13.3256 150.384 13.3379 150.472 13.3501 150.563C13.3599 150.634 13.3697 150.705 13.3819 150.778C13.5433 151.761 13.8221 152.746 13.7439 153.748C13.6963 154.262 13.5407 154.76 13.2873 155.208C13.0339 155.657 12.6886 156.048 12.2739 156.353C11.9921 156.572 11.6908 156.763 11.3739 156.927C10.9208 157.161 10.4487 157.356 9.96267 157.51H9.00146C9.13109 157.473 9.25827 157.436 9.3879 157.4C9.84789 157.269 10.2996 157.112 10.7404 156.927C10.9923 156.821 11.2373 156.7 11.4742 156.564C12.4574 155.998 13.2767 155.13 13.4479 153.971C13.5971 152.957 13.3085 151.942 13.1373 150.95C13.108 150.778 13.0811 150.609 13.0664 150.44C12.9496 149.581 13.0205 148.706 13.2743 147.877C13.6262 146.843 14.1523 145.876 14.8298 145.02C15.2489 144.462 15.6963 143.927 16.1701 143.415C16.2288 143.349 16.29 143.283 16.3535 143.216C18.0829 141.394 20.0796 139.846 22.2748 138.627H22.2773C23.9095 137.716 25.6412 136.998 27.4379 136.485H27.4404C27.5211 136.461 27.6042 136.436 27.6849 136.414C27.8537 136.37 27.8928 136.637 27.7265 136.684Z" fill="white"/>
<path d="M16.2564 143.508C15.6657 142.883 15.3159 142.068 15.2695 141.209C15.223 140.35 15.483 139.502 16.003 138.817C16.1087 138.678 16.3281 138.836 16.2223 138.975C15.7369 139.612 15.4948 140.402 15.5396 141.202C15.5845 142.002 15.9134 142.76 16.4669 143.338C16.587 143.464 16.3759 143.633 16.2564 143.508Z" fill="white"/>
<path d="M13.2335 150.292C14.9884 150.355 16.7027 149.754 18.0345 148.607C18.1663 148.493 18.3355 148.704 18.2038 148.818C16.8157 150.009 15.0305 150.631 13.2045 150.561C13.0304 150.554 13.0604 150.285 13.2335 150.292Z" fill="white"/>
<path d="M22.5003 138.711C22.6786 139 22.9258 139.241 23.2199 139.411C23.5139 139.581 23.8455 139.675 24.1848 139.685C24.3589 139.69 24.3287 139.959 24.1558 139.954C23.7809 139.941 23.4148 139.837 23.0895 139.65C22.7643 139.462 22.4897 139.198 22.2898 138.88C22.2685 138.852 22.2587 138.816 22.2625 138.781C22.2663 138.746 22.2835 138.713 22.3104 138.69C22.3384 138.668 22.374 138.657 22.4096 138.661C22.4451 138.665 22.4777 138.683 22.5003 138.711Z" fill="white"/>
<path d="M111.622 42.4243C111.371 42.7551 111.05 43.0267 110.683 43.22C110.316 43.4134 109.911 43.5237 109.497 43.5433C109.083 43.5628 108.669 43.4912 108.286 43.3333C107.902 43.1754 107.557 42.9352 107.276 42.6295L98.0312 46.658L98.9318 41.4872L107.573 38.4544C108.117 38.0156 108.803 37.7918 109.5 37.8256C110.198 37.8594 110.858 38.1483 111.357 38.6376C111.857 39.127 112.159 39.7827 112.208 40.4806C112.257 41.1785 112.048 41.8701 111.622 42.4243Z" fill="#FFB8B8"/>
<path d="M105.452 44.0387L83.9788 53.6218L83.9327 53.6053L59.4583 44.8674C57.6353 43.9128 56.2454 42.2962 55.5733 40.3485C54.9012 38.4007 54.9977 36.2692 55.843 34.3904C56.3116 33.3524 56.9942 32.4255 57.8461 31.6709C58.6979 30.9162 59.6997 30.3509 60.7853 30.012C61.871 29.6732 63.016 29.5686 64.1449 29.7051C65.2738 29.8416 66.3611 30.216 67.3351 30.8039L85.5486 41.7962L103.21 39.5029L105.452 44.0387Z" fill="#E6E6E6"/>
<path d="M211 157.708C211 157.747 210.993 157.785 210.978 157.82C210.964 157.856 210.942 157.888 210.915 157.915C210.888 157.942 210.856 157.963 210.821 157.978C210.785 157.993 210.747 158 210.709 158H0.299348C0.222157 158 0.14813 157.969 0.093547 157.915C0.0389645 157.86 0.00830078 157.786 0.00830078 157.708C0.00830078 157.631 0.0389645 157.557 0.093547 157.502C0.14813 157.447 0.222157 157.417 0.299348 157.417H210.709C210.747 157.417 210.785 157.424 210.821 157.439C210.856 157.453 210.888 157.475 210.915 157.502C210.942 157.529 210.964 157.561 210.978 157.597C210.993 157.632 211 157.67 211 157.708Z" fill="#CCCCCC"/>
<path d="M76.6374 72.7277L54.9906 69.2587C54.4229 69.0765 53.9012 68.7734 53.4615 68.3702C53.0217 67.9669 52.6742 67.4732 52.4429 66.9227C52.2116 66.3722 52.1019 65.7781 52.1213 65.1812C52.1408 64.5842 52.289 63.9986 52.5557 63.4644L53.5374 61.4971L53.156 40.8286C53.1101 38.1401 53.7716 35.4869 55.0741 33.1359C56.3766 30.7849 58.2741 28.8191 60.5757 27.4361L62.6867 26.1715L63.7535 23.4573L73.5905 23.6977L73.6192 27.2575L77.1421 32.8857L77.142 32.909L76.9209 63.5427L75.95 66.7041L77.4181 70.3811L76.6374 72.7277Z" fill="#E6E6E6"/>
<path d="M69.5732 20.0823C74.5095 20.0823 78.5112 16.0731 78.5112 11.1275C78.5112 6.18184 74.5095 2.17261 69.5732 2.17261C64.6369 2.17261 60.6353 6.18184 60.6353 11.1275C60.6353 16.0731 64.6369 20.0823 69.5732 20.0823Z" fill="#FFB8B8"/>
<path d="M60.2657 13.0794C59.9991 11.9542 60.1215 10.3708 60.2722 9.23786C60.6671 6.26763 62.3135 3.4439 64.8148 1.7713C65.2891 1.4104 65.8527 1.18601 66.4448 1.12232C67.0366 1.09757 67.678 1.41494 67.8597 1.97972C68.0087 1.60696 68.2325 1.26877 68.5171 0.986018C68.8017 0.703264 69.1411 0.481946 69.5144 0.335729C70.2642 0.0478915 71.0707 -0.0609619 71.8699 0.0177976C73.4188 0.14572 74.9044 0.69141 76.1688 1.59696C77.4332 2.5025 78.4293 3.73412 79.0515 5.16111C79.2902 5.72932 79.957 3.63052 80.2595 4.16739C80.5375 4.72544 81.0224 5.15233 81.6105 5.35669C82.2032 5.52239 82.4439 7.96893 82.6772 7.39844C82.8582 7.82004 82.9297 8.28068 82.8851 8.73744C82.8406 9.1942 82.6813 9.63224 82.4223 10.0107C82.1633 10.3893 81.8128 10.6959 81.4036 10.9022C80.9945 11.1085 80.5398 11.2077 80.0821 11.1905C79.4788 11.1679 78.902 10.9456 78.3059 10.8499C76.1744 10.5077 73.9133 12.0563 73.4576 14.1704C73.2944 13.559 73.0338 12.9781 72.6858 12.45C72.5091 12.1873 72.2724 11.9707 71.9953 11.8182C71.7182 11.6656 71.4088 11.5816 71.0928 11.573C70.4863 11.5958 69.9532 11.993 69.5598 12.4559C69.1663 12.9188 68.8707 13.4589 68.4744 13.9193C67.3113 15.2702 65.7381 18.4206 64.0806 18.1908C62.7725 18.0095 60.6297 14.6157 60.2657 13.0794Z" fill="#2F2E41"/>
<path d="M123.602 52.5717C123.665 52.1634 123.581 51.7462 123.366 51.3939C123.15 51.0416 122.818 50.7771 122.426 50.6472L98.3565 42.6154C98.1257 42.5381 97.8813 42.51 97.6391 42.5329L91.6061 43.1045L88.1443 43.4335L81.7562 44.0383C81.3705 44.0753 81.008 44.2394 80.7254 44.5051C80.4429 44.7707 80.2563 45.1228 80.1949 45.5061L76.9515 65.8048C76.8901 66.2007 76.9653 66.6058 77.1647 66.9531C77.3641 67.3004 77.6758 67.5692 78.0483 67.7151L102.369 77.1209C102.484 77.1653 102.602 77.1973 102.723 77.2161C102.899 77.2447 103.079 77.2461 103.255 77.2201L118.971 74.8865C119.342 74.8327 119.685 74.6607 119.95 74.3959C120.216 74.1311 120.389 73.7876 120.444 73.4164L123.602 52.5717Z" fill="white"/>
<path d="M78.5996 66.2849L102.921 75.6902C102.956 75.7042 102.995 75.7088 103.032 75.7033L118.746 73.37C118.793 73.3636 118.836 73.3421 118.869 73.3089C118.902 73.2757 118.924 73.2324 118.931 73.1858L122.091 52.3408C122.098 52.2899 122.087 52.2381 122.06 52.1942C122.034 52.1503 121.992 52.1171 121.944 52.1003L121.782 52.0454L97.8725 44.0703C97.8616 44.0664 97.8504 44.0637 97.8389 44.0622C97.8204 44.0588 97.8014 44.0578 97.7826 44.0593L83.0677 45.4543L81.9 45.5641C81.8521 45.5692 81.8071 45.5899 81.772 45.623C81.737 45.6561 81.7136 45.6997 81.7056 45.7473L78.4627 66.0453C78.4548 66.0949 78.4641 66.1457 78.489 66.1893C78.5139 66.2329 78.5529 66.2666 78.5996 66.2849Z" fill="url(#paint0_linear_1812_15915)"/>
<path d="M83.0674 45.4543L97.7824 44.0593C97.8012 44.0578 97.8201 44.0588 97.8386 44.0622C97.8501 44.0637 97.8613 44.0664 97.8722 44.0703L121.782 52.0454L115.475 52.7143L113.115 52.9634L106.398 53.6744C106.379 53.6754 106.359 53.6751 106.339 53.6737C106.327 53.6701 106.316 53.6664 106.301 53.6626L83.0674 45.4543Z" fill="#2F2E41"/>
<path d="M78.0477 67.7163L102.369 77.1216C102.483 77.1658 102.602 77.197 102.724 77.2146C102.9 77.2438 103.079 77.246 103.256 77.2213L118.97 74.8879C119.34 74.8338 119.684 74.6616 119.95 74.3966C120.215 74.1316 120.389 73.7881 120.444 73.4167L123.602 52.5715C123.648 52.2642 123.613 51.95 123.499 51.6608C123.483 51.6223 123.467 51.5839 123.449 51.5476C123.323 51.2836 123.133 51.056 122.895 50.8866C122.752 50.7836 122.594 50.7029 122.426 50.6473L122.398 50.6372L98.3576 42.6151C98.2594 42.5837 98.1591 42.5593 98.0575 42.5421C97.9185 42.5223 97.7777 42.5196 97.6381 42.5339L91.606 43.1036L88.1446 43.4344L81.7554 44.0388C81.494 44.0632 81.2416 44.1468 81.0171 44.2832C80.9998 44.2916 80.9832 44.3015 80.9676 44.3129C80.9565 44.3202 80.9459 44.3282 80.9358 44.3369C80.7398 44.471 80.5731 44.6436 80.4458 44.8443C80.3186 45.045 80.2334 45.2695 80.1955 45.5042L76.95 65.8044C76.8887 66.2007 76.964 66.606 77.1636 66.9536C77.3631 67.3012 77.675 67.5702 78.0477 67.7163ZM80.6261 45.575C80.6656 45.3317 80.7733 45.1047 80.9367 44.9204C80.9862 44.8611 81.0416 44.807 81.102 44.759C81.267 44.6253 81.4621 44.5341 81.6703 44.4934C81.7114 44.4849 81.753 44.479 81.7948 44.4758L92.5526 43.4576L97.6802 42.9687C97.7149 42.9646 97.7468 42.9652 97.7789 42.9634C97.8566 42.9618 97.9342 42.9676 98.0107 42.9807C98.0811 42.9898 98.1503 43.0063 98.2173 43.03L122.286 51.0622C122.305 51.0689 122.322 51.0754 122.341 51.0822C122.559 51.1637 122.752 51.3039 122.897 51.4874C123.011 51.6279 123.095 51.7909 123.142 51.966C123.189 52.141 123.199 52.3241 123.171 52.5032L120.011 73.3506C119.969 73.6286 119.84 73.886 119.641 74.0846C119.442 74.2832 119.185 74.4126 118.908 74.4537L103.192 76.7868C102.967 76.8191 102.738 76.7929 102.526 76.7108L78.2046 67.3079C77.9258 67.1978 77.6927 66.9961 77.5434 66.7358C77.3941 66.4755 77.3375 66.1721 77.383 65.8754L80.6261 45.575Z" fill="#3F3D56"/>
<path d="M80.8838 44.4477C80.8966 44.4108 80.9193 44.3781 80.9493 44.3531C80.9593 44.3451 80.9699 44.3379 80.9809 44.3315C80.9911 44.3276 81.0015 44.3212 81.0117 44.3172C81.0605 44.2975 81.1149 44.2966 81.1643 44.3146L81.6706 44.4935L106.401 53.234L112.189 52.6213L115.428 52.2791L122.284 51.5519L122.897 51.4875L123.016 51.4743C123.067 51.4696 123.119 51.4831 123.161 51.5123C123.204 51.5416 123.235 51.5848 123.249 51.6345C123.252 51.6459 123.254 51.6577 123.255 51.6696C123.26 51.7167 123.25 51.7643 123.226 51.805C123.202 51.8458 123.165 51.8775 123.121 51.8955C123.101 51.9035 123.081 51.909 123.06 51.9118L122.226 51.9994L115.475 52.7143L113.115 52.9635L106.399 53.6744C106.379 53.6754 106.359 53.6752 106.34 53.6737C106.328 53.6701 106.316 53.6665 106.302 53.6626L81.1023 44.7591L81.0167 44.7288C80.9971 44.7223 80.9789 44.7122 80.963 44.699C80.9249 44.671 80.8967 44.6315 80.8824 44.5864C80.8682 44.5412 80.8687 44.4926 80.8838 44.4477Z" fill="#3F3D56"/>
<path d="M102.79 77.2785C102.733 77.2694 102.682 77.2381 102.648 77.1915C102.614 77.1449 102.6 77.0867 102.608 77.0296L106.159 53.4237C106.168 53.3662 106.199 53.3146 106.245 53.2801C106.292 53.2456 106.35 53.2311 106.408 53.2397L106.41 53.2401C106.467 53.2492 106.518 53.2805 106.552 53.3271C106.586 53.3737 106.6 53.4319 106.591 53.489L103.041 77.0949C103.032 77.1524 103.001 77.204 102.954 77.2385C102.908 77.273 102.849 77.2875 102.792 77.2788L102.79 77.2785Z" fill="#3F3D56"/>
<path d="M111.79 75.781L109.428 76.0307L112.19 52.6206C112.19 52.6206 115.344 52.0485 115.428 52.2779C115.48 52.4149 111.812 75.6308 111.79 75.781Z" fill="#3F3D56"/>
<path d="M81.0172 44.7283L80.9536 55.404L99.8171 62.6054L106.591 53.4888L81.0172 44.7283Z" fill="#3F3D56"/>
<path d="M122.898 51.4877C122.74 51.2892 122.528 51.1412 122.287 51.0622L98.2187 43.0303C98.1512 43.0075 98.0818 42.9905 98.0113 42.9796C97.9345 42.9664 97.8567 42.9606 97.7788 42.9622L97.8178 42.7178L98.0588 42.543L103.774 38.3972L122.861 44.2579L122.894 50.8867L122.898 51.4877Z" fill="#3F3D56"/>
<path d="M81.9786 61.8666C82.0057 61.8693 82.0325 61.8749 82.0584 61.8834L89.4431 64.3134C89.5356 64.3438 89.6122 64.4098 89.6561 64.4968C89.7 64.5838 89.7077 64.6847 89.6773 64.7773C89.647 64.87 89.5812 64.9467 89.4943 64.9907C89.4075 65.0347 89.3068 65.0424 89.2143 65.012L81.8295 62.5819C81.7438 62.5537 81.6715 62.4948 81.6263 62.4165C81.5812 62.3382 81.5665 62.246 81.5849 62.1575C81.6033 62.069 81.6537 61.9904 81.7263 61.9367C81.799 61.8831 81.8888 61.8581 81.9786 61.8666Z" fill="white"/>
<path d="M111.774 106.651C113.395 106.651 114.709 105.335 114.709 103.711C114.709 102.087 113.395 100.77 111.774 100.77C110.153 100.77 108.839 102.087 108.839 103.711C108.839 105.335 110.153 106.651 111.774 106.651Z" fill="#F2F2F2"/>
<path d="M36.9325 117.433C38.5535 117.433 39.8675 116.117 39.8675 114.493C39.8675 112.869 38.5535 111.552 36.9325 111.552C35.3116 111.552 33.9976 112.869 33.9976 114.493C33.9976 116.117 35.3116 117.433 36.9325 117.433Z" fill="#F2F2F2"/>
<path d="M98.0775 20.1513C99.6985 20.1513 101.012 18.8348 101.012 17.2108C101.012 15.5868 99.6985 14.2703 98.0775 14.2703C96.4566 14.2703 95.1426 15.5868 95.1426 17.2108C95.1426 18.8348 96.4566 20.1513 98.0775 20.1513Z" fill="#F2F2F2"/>
<path d="M17.935 15.881C19.5559 15.881 20.8699 14.5645 20.8699 12.9405C20.8699 11.3165 19.5559 10 17.935 10C16.314 10 15 11.3165 15 12.9405C15 14.5645 16.314 15.881 17.935 15.881Z" fill="#F2F2F2"/>
<path d="M102.893 66.1911C102.513 66.3567 102.101 66.4367 101.686 66.4255C101.271 66.4143 100.864 66.3121 100.493 66.1262C100.122 65.9403 99.7967 65.6752 99.5391 65.3496C99.2815 65.0239 99.0983 64.6456 99.0024 64.2413L88.9717 63.226L92.2809 59.1567L101.299 60.7448C101.987 60.6284 102.695 60.7691 103.287 61.1403C103.878 61.5114 104.314 62.0872 104.51 62.7586C104.707 63.4299 104.651 64.1501 104.353 64.7828C104.055 65.4154 103.535 65.9165 102.893 66.1911Z" fill="#FFB8B8"/>
<path d="M96.723 64.577L73.3147 62.4161L73.2825 62.3791L56.1985 42.7667C55.0742 41.041 54.6508 38.9499 55.0152 36.9216C55.3795 34.8933 56.504 33.0813 58.1583 31.8566C59.0737 31.1807 60.1215 30.7066 61.2329 30.4657C62.3443 30.2248 63.4941 30.2224 64.6064 30.4587C65.7188 30.695 66.7686 31.1647 67.6867 31.8368C68.6049 32.509 69.3705 33.3683 69.9333 34.3582L80.4557 52.8698L96.9809 59.522L96.723 64.577Z" fill="#E6E6E6"/>
<path d="M155.477 26.8606C154.896 22.5886 154.167 18.0019 151.159 14.918C150.205 13.9395 149.063 13.1647 147.802 12.6404C146.541 12.1161 145.186 11.8531 143.821 11.8672C142.456 11.8814 141.107 12.1724 139.857 12.7228C138.607 13.2732 137.481 14.0715 136.547 15.0696C134.358 17.4094 133.391 20.6949 133.303 23.9009C133.214 27.1068 133.927 30.2771 134.718 33.3848C138.901 33.4686 143.054 32.6496 146.894 30.9836C147.854 30.566 148.799 30.0939 149.814 29.8352C150.828 29.5765 151.551 30.2275 152.495 30.6815L153.013 29.6877C153.437 30.4783 154.75 30.244 155.226 29.4838C155.703 28.7235 155.598 27.75 155.477 26.8606Z" fill="#2F2E41"/>
<path d="M138.893 50.7056L121.803 51.0718C121.54 50.6172 121.152 50.2489 120.684 50.0116C120.217 49.7743 119.69 49.6783 119.169 49.7353C118.648 49.7922 118.155 49.9996 117.75 50.3323C117.344 50.665 117.044 51.1086 116.885 51.6091C116.727 52.1097 116.717 52.6456 116.857 53.1516C116.997 53.6576 117.281 54.112 117.674 54.4594C118.067 54.8068 118.552 55.0323 119.071 55.1084C119.589 55.1845 120.119 55.1079 120.595 54.888C122.861 55.0171 140.594 57.5387 141.652 55.9136C142.726 54.2642 148.458 48.4432 148.458 48.4432L144.052 42.1594L138.893 50.7056Z" fill="#9E616A"/>
<path d="M143.057 31.0874C147.492 31.0874 151.087 27.4856 151.087 23.0426C151.087 18.5996 147.492 14.9978 143.057 14.9978C138.623 14.9978 135.028 18.5996 135.028 23.0426C135.028 27.4856 138.623 31.0874 143.057 31.0874Z" fill="#9E616A"/>
<path d="M155.918 38.5216C154.972 36.6348 154.512 34.3039 152.495 33.6923C151.133 33.2792 145.623 33.8982 144.382 34.5955C142.317 35.7553 144.188 37.9286 142.97 39.9624C141.645 42.1734 138.046 46.6104 136.721 48.8213C135.811 50.3413 138.878 54.8027 138.385 56.5053C137.893 58.208 137.869 60.1191 138.708 61.68C139.459 63.0771 138.373 64.313 139.128 65.7077C139.913 67.1583 140.876 72.5818 140.145 74.0607L139.656 75.531C144.51 75.8167 148.592 70.0067 153.416 69.3946C154.614 69.2426 155.858 69.044 156.845 68.3472C158.3 67.3208 158.875 65.4584 159.234 63.7128C160.963 55.1802 159.796 46.3134 155.918 38.5216Z" fill="#3F3D56"/>
<path d="M163.196 58.4439C162.52 56.5949 161.296 48.5107 161.296 48.5107L153.635 48.2856L157.38 57.5414L147.159 71.8771C147.159 71.8771 147.178 71.9086 147.212 71.9647C146.675 71.8784 146.124 71.9565 145.632 72.189C145.139 72.4214 144.729 72.7974 144.453 73.2676C144.178 73.7379 144.05 74.2805 144.087 74.8245C144.125 75.3685 144.325 75.8886 144.662 76.3166C145 76.7446 145.458 77.0607 145.977 77.2235C146.497 77.3863 147.053 77.3881 147.574 77.2289C148.094 77.0696 148.555 76.7566 148.895 76.3309C149.235 75.9051 149.439 75.3865 149.48 74.8427C149.517 74.8644 149.561 74.8722 149.604 74.8648C149.647 74.8574 149.686 74.8354 149.714 74.8024C150.851 73.3725 163.872 60.2929 163.196 58.4439Z" fill="#9E616A"/>
<path d="M163.975 53.3386C163.272 50.365 162.563 47.3753 161.378 44.5598C160.192 41.7442 158.495 39.0848 156.108 37.1827C155.345 36.5745 154.491 36.0377 153.535 35.8487C152.578 35.6596 151.5 35.8712 150.828 36.5792C149.753 37.7122 150.076 39.5308 150.471 41.0434C151.633 45.5033 152.796 49.9631 153.959 54.423C157.317 54.0664 160.675 53.7098 164.033 53.3532L163.975 53.3386Z" fill="#3F3D56"/>
<path d="M152.897 24.1584C152.601 22.2123 152.292 20.2499 151.597 18.4174C150.903 16.5849 149.783 14.8686 148.177 13.8305C145.633 12.187 142.34 12.504 139.489 13.4494C137.284 14.1805 135.131 15.2918 133.576 17.0783C132.021 18.8648 131.147 21.414 131.726 23.75C134.768 23.03 137.809 22.31 140.851 21.59L140.518 21.8257C141.517 22.3246 142.389 23.045 143.068 23.9321C143.748 24.8191 144.216 25.8496 144.439 26.9453C144.656 28.0543 144.625 29.1978 144.347 30.2932C144.07 31.3886 143.552 32.4085 142.833 33.2791C144.907 32.5418 146.982 31.8045 149.056 31.0672C150.337 30.6122 151.707 30.0878 152.466 28.9206C153.347 27.5672 153.142 25.7735 152.897 24.1584Z" fill="#2F2E41"/>
<path d="M210.935 0.881021C212.556 0.881021 213.87 -0.43549 213.87 -2.05949C213.87 -3.68349 212.556 -5 210.935 -5C209.314 -5 208 -3.68349 208 -2.05949C208 -0.43549 209.314 0.881021 210.935 0.881021Z" fill="#F2F2F2"/>
</g>
<defs>
<linearGradient id="paint0_linear_1812_15915" x1="100.276" y1="44.0586" x2="100.276" y2="75.7056" gradientUnits="userSpaceOnUse">
<stop stop-color="#6595FF"/>
<stop offset="1" stop-color="#407BFF"/>
</linearGradient>
<clipPath id="clip0_1812_15915">
<rect width="211" height="158" fill="white"/>
</clipPath>
</defs>
</svg>
