<svg width="14" height="12" viewBox="0 0 14 12" fill="none" xmlns="http://www.w3.org/2000/svg">
<path d="M7.00035 12.0004C6.79963 12.0001 6.60363 11.9395 6.43785 11.8263C3.98191 10.1591 2.91847 9.016 2.33191 8.30131C1.08191 6.77787 0.483472 5.21381 0.500347 3.52006C0.520035 1.57912 2.07722 0.00037384 3.9716 0.00037384C5.3491 0.00037384 6.30316 0.776312 6.85879 1.42256C6.87639 1.44283 6.89813 1.45908 6.92256 1.47021C6.94698 1.48135 6.97351 1.48711 7.00035 1.48711C7.02719 1.48711 7.05372 1.48135 7.07814 1.47021C7.10256 1.45908 7.12431 1.44283 7.14191 1.42256C7.69754 0.775687 8.6516 0.00037384 10.0291 0.00037384C11.9235 0.00037384 13.4807 1.57912 13.5003 3.52037C13.5172 5.21444 12.9182 6.7785 11.6688 8.30163C11.0822 9.01631 10.0188 10.1594 7.56285 11.8266C7.39703 11.9397 7.20104 12.0002 7.00035 12.0004Z" fill="#DC1515"/>
</svg>
