<svg width="15" height="21" viewBox="0 0 15 21" fill="none" xmlns="http://www.w3.org/2000/svg">
<path d="M14.1533 7C14.1533 3.13 11.0233 0 7.15332 0C3.28332 0 0.15332 3.13 0.15332 7C0.15332 10.62 2.89332 13.59 6.40332 13.96V16.25H4.15332C3.74332 16.25 3.40332 16.59 3.40332 17C3.40332 17.41 3.74332 17.75 4.15332 17.75H6.40332V20C6.40332 20.41 6.74332 20.75 7.15332 20.75C7.56332 20.75 7.90332 20.41 7.90332 20V17.75H10.1533C10.5633 17.75 10.9033 17.41 10.9033 17C10.9033 16.59 10.5633 16.25 10.1533 16.25H7.90332V13.96C11.4133 13.59 14.1533 10.62 14.1533 7Z" fill="#5388FF"/>
</svg>
