<svg width="18" height="20" viewBox="0 0 18 20" fill="none" xmlns="http://www.w3.org/2000/svg">
<path d="M15.2714 3.02086C13.6169 1.14586 11.1838 3.05176e-05 8.65332 3.05176e-05C6.12287 3.05176e-05 3.68974 1.0417 2.03521 3.02086C0.67266 4.68753 -0.00861613 6.77086 0.186034 8.8542C0.186034 9.27086 0.283359 9.68753 0.380684 10C1.25661 14.375 5.73357 18.2292 7.68007 19.6875C7.97204 19.8959 8.26402 20 8.65332 20C9.04262 20 9.3346 19.8959 9.62657 19.6875C11.4757 18.2292 16.05 14.375 16.926 10C17.0233 9.68753 17.0233 9.27086 17.1206 8.8542C17.3153 6.77086 16.634 4.68753 15.2714 3.02086ZM8.65332 11.9792C7.19344 11.9792 5.92822 10.7292 5.92822 9.06253C5.92822 7.39586 7.09612 6.14586 8.65332 6.14586C10.2105 6.14586 11.3784 7.39586 11.3784 9.06253C11.3784 10.7292 10.1132 11.9792 8.65332 11.9792Z" fill="#5388FF"/>
</svg>
