<svg width="16" height="16" viewBox="0 0 16 16" fill="none" xmlns="http://www.w3.org/2000/svg">
<path d="M12.7455 3.34722C11.6425 2.09722 10.0204 1.33333 8.33341 1.33333C6.64645 1.33333 5.02436 2.02777 3.92134 3.34722C3.01297 4.45833 2.55879 5.84722 2.68856 7.23611C2.68856 7.51388 2.75344 7.79166 2.81832 7.99999C3.40227 10.9167 6.38691 13.4861 7.68458 14.4583C7.87923 14.5972 8.07388 14.6667 8.33341 14.6667C8.59295 14.6667 8.7876 14.5972 8.98225 14.4583C10.215 13.4861 13.2646 10.9167 13.8485 7.99999C13.9134 7.79166 13.9134 7.51388 13.9783 7.23611C14.108 5.84722 13.6539 4.45833 12.7455 3.34722ZM8.33341 9.31944C7.36016 9.31944 6.51668 8.4861 6.51668 7.37499C6.51668 6.26388 7.29528 5.43055 8.33341 5.43055C9.37155 5.43055 10.1502 6.26388 10.1502 7.37499C10.1502 8.4861 9.30667 9.31944 8.33341 9.31944Z" fill="white"/>
</svg>
