<svg width="30" height="30" viewBox="0 0 30 30" fill="none" xmlns="http://www.w3.org/2000/svg">
<circle opacity="0.2" cx="15" cy="15" r="15" fill="url(#paint0_linear_3759_17539)"/>
<path d="M20.6713 12.6638C19.9806 9.62428 17.3292 8.25586 15.0003 8.25586C15.0003 8.25586 15.0003 8.25586 14.9937 8.25586C12.6713 8.25586 10.0135 9.6177 9.32266 12.6572C8.55293 16.0519 10.6319 18.9269 12.5135 20.7361C13.2108 21.4072 14.1056 21.7427 15.0003 21.7427C15.895 21.7427 16.7898 21.4072 17.4806 20.7361C19.3621 18.9269 21.4411 16.0585 20.6713 12.6638ZM15.0003 15.9598C13.8556 15.9598 12.9279 15.0322 12.9279 13.8874C12.9279 12.7427 13.8556 11.8151 15.0003 11.8151C16.145 11.8151 17.0727 12.7427 17.0727 13.8874C17.0727 15.0322 16.145 15.9598 15.0003 15.9598Z" fill="url(#paint1_linear_3759_17539)"/>
<defs>
<linearGradient id="paint0_linear_3759_17539" x1="15" y1="0" x2="15" y2="30" gradientUnits="userSpaceOnUse">
<stop stop-color="#6595FF"/>
<stop offset="1" stop-color="#407BFF"/>
</linearGradient>
<linearGradient id="paint1_linear_3759_17539" x1="14.997" y1="8.25586" x2="14.997" y2="21.7427" gradientUnits="userSpaceOnUse">
<stop stop-color="#6595FF"/>
<stop offset="1" stop-color="#407BFF"/>
</linearGradient>
</defs>
</svg>
