<svg width="22" height="22" viewBox="0 0 22 22" fill="none" xmlns="http://www.w3.org/2000/svg">
<path d="M15.4 20.1667H13.0167C10.0833 20.1667 8.25 18.3333 8.25 15.4V11.6875H13.9792C14.355 11.6875 14.6667 11.3758 14.6667 11C14.6667 10.6242 14.355 10.3125 13.9792 10.3125H8.25V6.59999C8.25 3.66666 10.0833 1.83332 13.0167 1.83332H15.3908C18.3242 1.83332 20.1575 3.66666 20.1575 6.59999V15.4C20.1667 18.3333 18.3333 20.1667 15.4 20.1667Z" fill="#DC1515"/>
<path d="M4.17982 11.6875L6.07732 13.585C6.21482 13.7225 6.27899 13.8967 6.27899 14.0708C6.27899 14.245 6.21482 14.4283 6.07732 14.5567C5.81149 14.8225 5.37149 14.8225 5.10566 14.5567L2.03482 11.4858C1.76899 11.22 1.76899 10.78 2.03482 10.5142L5.10566 7.44333C5.37149 7.1775 5.81149 7.1775 6.07732 7.44333C6.34316 7.70917 6.34316 8.14917 6.07732 8.415L4.17982 10.3125H8.24982V11.6875H4.17982Z" fill="#DC1515"/>
</svg>
