<svg width="21" height="21" viewBox="0 0 21 21" fill="none" xmlns="http://www.w3.org/2000/svg">
<path d="M20.3433 1.21C20.2733 1.03 20.1233 0.88 19.9433 0.81C19.8433 0.77 19.7533 0.75 19.6533 0.75H13.1533C12.7433 0.75 12.4033 1.09 12.4033 1.5C12.4033 1.91 12.7433 2.25 13.1533 2.25H17.8433L13.3333 6.77H13.3233C11.9833 5.66 10.2733 5 8.40332 5C4.12332 5 0.65332 8.47 0.65332 12.75C0.65332 17.03 4.12332 20.5 8.40332 20.5C12.6833 20.5 16.1533 17.03 16.1533 12.75C16.1533 10.88 15.4933 9.17 14.3833 7.83L18.9033 3.31V8C18.9033 8.41 19.2433 8.75 19.6533 8.75C20.0633 8.75 20.4033 8.41 20.4033 8V1.5C20.4033 1.4 20.3833 1.31 20.3433 1.21Z" fill="url(#paint0_linear_1957_5678)"/>
<defs>
<linearGradient id="paint0_linear_1957_5678" x1="10.5283" y1="0.75" x2="10.5283" y2="20.5" gradientUnits="userSpaceOnUse">
<stop stop-color="#6595FF"/>
<stop offset="1" stop-color="#407BFF"/>
</linearGradient>
</defs>
</svg>
