<svg width="52" height="45" viewBox="0 0 52 45" fill="none" xmlns="http://www.w3.org/2000/svg">
<g clip-path="url(#clip0_2112_11534)">
<path d="M0.209854 24.8827L5.87749 13.2708C6.11739 12.7882 6.62718 12.4564 7.16695 12.4564H19.162C19.7017 12.4564 20.2115 12.758 20.4514 13.2406L26.0591 24.37C26.5089 25.2446 26.239 26.3003 25.4593 26.8733C24.4697 27.567 23.1203 27.2352 22.5505 26.1796L18.7421 18.8204L17.9625 26.3606L19.7917 42.1347C19.9716 43.6427 18.8021 44.9698 17.2727 44.9698C15.9833 44.9698 14.9037 44.0047 14.7538 42.7379L13.1944 30.1005L11.6951 42.7379C11.5451 44.0047 10.4656 44.9698 9.17612 44.9698C7.67674 44.9698 6.47724 43.6427 6.65717 42.1347L8.42643 26.3606L7.58678 18.8505L3.6884 26.632C3.2086 27.567 2.06908 27.9591 1.10948 27.5067C0.149879 27.0543 -0.269946 25.878 0.209854 24.8827Z" fill="#8696AE"/>
<path d="M13.1045 10.6166C16.0193 10.6166 18.3823 8.24001 18.3823 5.30831C18.3823 2.37661 16.0193 0 13.1045 0C10.1896 0 7.82666 2.37661 7.82666 5.30831C7.82666 8.24001 10.1896 10.6166 13.1045 10.6166Z" fill="#8696AE"/>
<path d="M37.2617 10.6138C40.1751 10.5211 42.4621 8.07047 42.37 5.14024C42.2778 2.21001 39.8413 -0.0902539 36.9279 0.00246558C34.0145 0.0951851 31.7274 2.54577 31.8196 5.47601C31.9118 8.40624 34.3483 10.7065 37.2617 10.6138Z" fill="#8696AE"/>
<path d="M23.1203 24.1589L31.5168 13.0898C31.8167 12.6977 32.2665 12.4866 32.7463 12.4866H41.3228C41.8026 12.4866 42.2524 12.6977 42.5223 13.0898L51.0087 24.0684C51.6385 24.8526 51.4885 25.9987 50.6789 26.632C49.9891 27.1749 48.9996 27.1146 48.3398 26.5114L42.3423 19.5442L45.0412 31.2768H41.2928L41.6826 43.0697C41.7126 44.065 40.9029 44.9095 39.9133 44.9095C38.9837 44.9095 38.2041 44.2158 38.1141 43.2808L37.0945 32.4531L36.1049 43.2808C36.015 44.1857 35.2653 44.9095 34.3357 44.9095C33.3161 44.9095 32.5064 44.065 32.5364 43.0697L32.8663 31.2768H29.1178L31.6968 19.5442L25.8192 26.5717C25.1895 27.1749 24.1999 27.2353 23.4802 26.7225C22.6705 26.0891 22.5206 24.943 23.1203 24.1589Z" fill="#8696AE"/>
</g>
<defs>
<clipPath id="clip0_2112_11534">
<rect width="51.4286" height="45" fill="white"/>
</clipPath>
</defs>
</svg>
