<svg width="22" height="22" viewBox="0 0 22 22" fill="none" xmlns="http://www.w3.org/2000/svg">
<path d="M11.0002 17.4167C14.544 17.4167 17.4168 14.5438 17.4168 11C17.4168 7.45617 14.544 4.58333 11.0002 4.58333C7.45634 4.58333 4.5835 7.45617 4.5835 11C4.5835 14.5438 7.45634 17.4167 11.0002 17.4167Z" fill="url(#paint0_linear_3867_16895)"/>
<path d="M10.9998 21.0467C10.4957 21.0467 10.0832 20.6708 10.0832 20.1667V20.0933C10.0832 19.5892 10.4957 19.1767 10.9998 19.1767C11.504 19.1767 11.9165 19.5892 11.9165 20.0933C11.9165 20.5975 11.504 21.0467 10.9998 21.0467ZM17.5448 18.4617C17.3065 18.4617 17.0773 18.37 16.894 18.1958L16.7748 18.0767C16.4173 17.7192 16.4173 17.1417 16.7748 16.7842C17.1323 16.4267 17.7098 16.4267 18.0673 16.7842L18.1865 16.9033C18.544 17.2608 18.544 17.8383 18.1865 18.1958C18.0123 18.37 17.7832 18.4617 17.5448 18.4617ZM4.45484 18.4617C4.2165 18.4617 3.98734 18.37 3.804 18.1958C3.4465 17.8383 3.4465 17.2608 3.804 16.9033L3.92317 16.7842C4.28067 16.4267 4.85817 16.4267 5.21567 16.7842C5.57317 17.1417 5.57317 17.7192 5.21567 18.0767L5.0965 18.1958C4.92234 18.37 4.684 18.4617 4.45484 18.4617ZM20.1665 11.9167H20.0932C19.589 11.9167 19.1765 11.5042 19.1765 11C19.1765 10.4958 19.589 10.0833 20.0932 10.0833C20.5973 10.0833 21.0465 10.4958 21.0465 11C21.0465 11.5042 20.6707 11.9167 20.1665 11.9167ZM1.9065 11.9167H1.83317C1.329 11.9167 0.916504 11.5042 0.916504 11C0.916504 10.4958 1.329 10.0833 1.83317 10.0833C2.33734 10.0833 2.7865 10.4958 2.7865 11C2.7865 11.5042 2.41067 11.9167 1.9065 11.9167ZM17.4257 5.49083C17.1873 5.49083 16.9582 5.39917 16.7748 5.225C16.4173 4.8675 16.4173 4.29 16.7748 3.9325L16.894 3.81333C17.2515 3.45583 17.829 3.45583 18.1865 3.81333C18.544 4.17083 18.544 4.74833 18.1865 5.10583L18.0673 5.225C17.8932 5.39917 17.664 5.49083 17.4257 5.49083ZM4.574 5.49083C4.33567 5.49083 4.1065 5.39917 3.92317 5.225L3.804 5.09667C3.4465 4.73917 3.4465 4.16167 3.804 3.80417C4.1615 3.44667 4.739 3.44667 5.0965 3.80417L5.21567 3.92333C5.57317 4.28083 5.57317 4.85833 5.21567 5.21583C5.0415 5.39917 4.80317 5.49083 4.574 5.49083ZM10.9998 2.78667C10.4957 2.78667 10.0832 2.41083 10.0832 1.90667V1.83333C10.0832 1.32917 10.4957 0.916668 10.9998 0.916668C11.504 0.916668 11.9165 1.32917 11.9165 1.83333C11.9165 2.3375 11.504 2.78667 10.9998 2.78667Z" fill="url(#paint1_linear_3867_16895)"/>
<defs>
<linearGradient id="paint0_linear_3867_16895" x1="11.0002" y1="4.58333" x2="11.0002" y2="17.4167" gradientUnits="userSpaceOnUse">
<stop stop-color="#6595FF"/>
<stop offset="1" stop-color="#407BFF"/>
</linearGradient>
<linearGradient id="paint1_linear_3867_16895" x1="10.9815" y1="0.916668" x2="10.9815" y2="21.0467" gradientUnits="userSpaceOnUse">
<stop stop-color="#6595FF"/>
<stop offset="1" stop-color="#407BFF"/>
</linearGradient>
</defs>
</svg>
