<svg width="25" height="25" viewBox="0 0 25 25" fill="none" xmlns="http://www.w3.org/2000/svg">
<path d="M14.4145 11.4542C14.741 11.8139 15.0327 12.2846 14.9084 12.4089C14.7841 12.5332 14.4029 12.3078 14.1112 12.0161C13.8195 11.7244 13.1234 14.8237 13.0555 14.9811C13.0057 15.0988 12.1936 16.0269 11.7693 16.912C11.6284 17.207 11.6483 18.0954 11.5953 18.1484C11.3815 18.3622 11.113 18.339 10.5279 17.8219C9.94453 17.3048 9.64123 20.3793 10.3373 20.8649C11.5273 21.6952 13.909 24.9984 17.0531 24.9984C20.6911 24.9984 24.0605 21.203 24.0605 18.4169C24.0605 15.6325 23.2434 14.5751 23.2965 12.2398C23.3412 10.2625 24.7782 9.31948 24.7782 8.33167C24.7782 7.50132 23.5434 7.29911 23.139 7.29911C22.4197 7.29911 20.5784 8.22063 20.5784 10.6454C20.5784 11.5885 20.3082 12.442 19.3436 12.442C18.379 12.442 17.3 11.1161 16.6487 10.0835" fill="url(#paint0_linear_1696_7340)"/>
<path d="M24.7816 8.33171C24.7816 7.87924 24.417 7.61405 24.0175 7.46489C24.4949 9.04935 22.0701 9.11897 22.0701 14.5204C22.0701 19.9218 18.926 21.4931 17.6233 21.7632C16.3206 22.0334 14.0251 22.1113 12.2782 19.9666C11.7412 19.3086 11.0136 18.5926 10.2065 17.9164C9.86506 18.4882 9.79214 20.482 10.3407 20.8649C11.5307 21.6953 13.9124 24.9984 17.0565 24.9984C20.6945 24.9984 24.0639 21.203 24.0639 18.4169C24.0639 15.6325 23.2468 14.5751 23.2999 12.2398C23.343 10.2642 24.7816 9.32117 24.7816 8.33171Z" fill="url(#paint1_linear_1696_7340)"/>
<path d="M10.5296 17.8218C9.94623 17.3047 8.56397 15.8345 7.66567 15.1152C6.76736 14.3959 5.98175 14.4059 5.44144 15.1981C4.90279 15.9903 6.474 17.3842 6.83365 17.7439C7.38391 18.2941 9.64128 20.3791 10.3374 20.8664" fill="url(#paint2_linear_1696_7340)"/>
<path d="M13.0557 14.9811C12.9877 15.1385 12.5303 15.2463 11.6187 14.2551C10.9226 13.4977 9.05803 11.3199 7.95752 10.3304C6.85701 9.34262 6.00345 8.93821 5.28414 9.45366C4.56483 9.96911 4.97422 11.0464 5.77805 11.9464C6.77249 13.0585 7.91609 14.1921 9.01162 15.2811C9.8685 16.133 11.8076 17.9312 11.5938 18.145" fill="url(#paint3_linear_1696_7340)"/>
<path d="M16.6507 10.0835C15.9993 9.05098 13.3259 5.72625 12.6746 4.7832C12.0232 3.84014 11.1465 3.84014 10.5415 4.26609C9.9349 4.69204 9.7559 5.5456 11.1199 7.36044C11.9801 8.50404 12.6978 9.55814 14.4165 11.4542L16.4153 11.315L16.6507 10.0835Z" fill="url(#paint4_linear_1696_7340)"/>
<path d="M14.1115 12.016C13.8198 11.7243 11.2376 8.66305 10.6525 8.00673C9.55698 6.77694 8.16974 4.14335 6.514 5.31678C5.64387 5.93333 6.11457 6.82666 6.36318 7.18632C6.61013 7.54597 9.82216 11.2519 10.1371 11.5668C10.452 11.8817 13.1237 14.8236 13.0574 14.981" fill="url(#paint5_linear_1696_7340)"/>
<path d="M9.01333 15.2844C9.82214 16.0882 11.5939 17.734 11.6121 18.097C11.8674 17.6975 11.4 16.5142 10.9061 16.0982C8.05371 13.6949 5.29581 9.82161 4.9461 9.93763C4.79527 10.5011 5.17648 11.2751 5.77977 11.9497C6.77255 13.0602 7.91614 14.1955 9.01333 15.2844Z" fill="url(#paint6_linear_1696_7340)"/>
<path d="M14.4145 11.4541C14.7278 11.7988 15.0079 12.248 14.92 12.3921C15.9625 11.5535 13.7582 9.09228 12.5102 7.61388C11.5439 6.47028 11.2821 5.01509 10.5893 4.23446C10.5727 4.24441 10.5561 4.25601 10.5395 4.26761C9.93294 4.69356 9.75394 5.54712 11.118 7.36196C11.9798 8.50556 12.6958 9.55801 14.4145 11.4541Z" fill="url(#paint7_linear_1696_7340)"/>
<path d="M10.1368 11.5667C10.4517 11.8816 13.1234 14.8235 13.0571 14.981C13.8825 13.8689 10.6821 10.6005 9.13244 8.94972C7.7883 7.51774 7.55792 6.26475 6.24692 5.56036C5.75965 6.14873 6.14748 6.87135 6.36294 7.18626C6.60989 7.54591 9.82192 11.2518 10.1368 11.5667Z" fill="url(#paint8_linear_1696_7340)"/>
<path d="M12.9958 15.0456C12.9013 15.1036 12.709 15.1086 12.4124 14.9362C12.6328 15.1169 12.8383 15.1848 12.9958 15.0456Z" fill="url(#paint9_linear_1696_7340)"/>
<path d="M7.22843 20.9443C7.20854 20.9443 7.18865 20.941 7.16876 20.936C5.11856 20.3112 2.89766 18.0704 2.41536 16.1412C2.38884 16.0335 2.45348 15.9224 2.56287 15.8959C2.6706 15.8694 2.78164 15.934 2.80816 16.0434C3.25234 17.8218 5.38706 19.9698 7.28643 20.5499C7.39251 20.583 7.45383 20.6957 7.42068 20.8018C7.39417 20.888 7.31461 20.9443 7.22843 20.9443Z" fill="#955500"/>
<path d="M8.20445 23.4884C8.18953 23.4884 8.17462 23.4868 8.15804 23.4834C6.46088 23.089 4.49023 21.8211 2.74997 20.0062C1.12241 18.3091 0.0683114 16.5042 0.000358313 15.2959C-0.00627126 15.1849 0.0799131 15.0887 0.190958 15.0821C0.302004 15.0755 0.398131 15.1617 0.40476 15.2727C0.466084 16.3716 1.50196 18.1201 3.04167 19.7261C4.7289 21.4863 6.62827 22.7111 8.25085 23.089C8.36024 23.1138 8.42654 23.2232 8.40168 23.331C8.38013 23.4254 8.29726 23.4884 8.20445 23.4884Z" fill="#955500"/>
<path d="M16.8972 5.7942C16.8077 5.7942 16.7265 5.73453 16.7016 5.64337C16.4165 4.56441 15.1254 3.01475 13.9487 2.70979C13.8409 2.68161 13.7763 2.57223 13.8028 2.46284C13.831 2.35511 13.9404 2.29047 14.0498 2.31699C15.3757 2.66007 16.7729 4.33072 17.0927 5.53896C17.1209 5.64669 17.0563 5.75773 16.9486 5.78591C16.932 5.79254 16.9137 5.7942 16.8972 5.7942Z" fill="#955500"/>
<path d="M19.4467 6.15385C19.3572 6.15385 19.2744 6.09253 19.2512 6.00137C18.4921 3.01806 15.6596 0.691087 14.0436 0.401044C13.9342 0.381155 13.8613 0.276736 13.8812 0.165691C13.9011 0.0563027 14.0055 -0.0166193 14.1166 0.00326944C15.88 0.319831 18.8351 2.71808 19.6456 5.90193C19.6738 6.00966 19.6075 6.1207 19.4998 6.14722C19.4799 6.15219 19.4633 6.15385 19.4467 6.15385Z" fill="#955500"/>
<path d="M23.3331 7.63559C24.0193 7.51294 24.1403 7.59083 24.0176 7.46487C23.6828 7.34057 23.3265 7.29748 23.1409 7.29748C22.4215 7.29748 20.5802 8.21899 20.5802 10.6438C20.5802 11.5868 20.31 12.4404 19.3454 12.4404C18.9642 12.4404 18.5665 12.2332 18.1836 11.9216C19.8791 13.7994 21.21 12.031 21.4122 10.8178C21.6144 9.60457 21.321 7.99856 23.3331 7.63559Z" fill="url(#paint10_radial_1696_7340)"/>
<path d="M10.3328 4.45C9.91346 4.92402 9.92672 5.77592 11.1184 7.36039C11.9786 8.50399 12.6962 9.55809 14.4149 11.4541C14.7414 11.8138 15.0331 12.2845 14.9088 12.4088C15.1956 10.4431 12.3996 8.51227 11.4896 7.02891C10.7703 5.85547 10.6261 5.16268 10.3328 4.45Z" fill="url(#paint11_linear_1696_7340)"/>
<path d="M10.1372 11.5669C10.4521 11.8818 13.1238 14.8236 13.0575 14.9811C13.6475 14.5601 13.2448 13.9054 12.3332 12.9939C10.4653 11.126 7.8649 8.61505 6.81908 6.54828C6.71964 6.35271 6.53732 6.20851 6.32021 6.18033C5.75669 6.10741 6.17436 6.91291 6.3633 7.18803C6.61025 7.54603 9.82228 11.252 10.1372 11.5669Z" fill="url(#paint12_linear_1696_7340)"/>
<path d="M5.77958 11.948C6.77401 13.0601 7.91761 14.1937 9.01314 15.2826C9.87001 16.1345 11.8092 17.9328 11.5954 18.1466C12.797 17.1356 7.21487 13.4777 4.94424 9.9359C4.79508 10.4994 5.17629 11.2734 5.77958 11.948Z" fill="url(#paint13_linear_1696_7340)"/>
<path d="M11.3487 18.3505C11.463 18.3057 11.5227 18.2527 11.5409 18.1947C11.3354 18.3538 11.0636 18.2958 10.5282 17.8218C9.94484 17.3047 8.56257 15.8346 7.66426 15.1153C7.2698 14.7987 6.89689 14.6247 6.55713 14.5948C7.0444 14.8981 6.819 15.0092 7.90128 15.8395C8.48136 16.2837 10.6078 18.6422 11.3487 18.3505Z" fill="url(#paint14_linear_1696_7340)"/>
<path d="M9.9349 12.959C10.7238 13.9186 12.2619 15.5047 12.953 15.0655C12.7624 15.1302 12.3282 15.0257 11.6188 14.2534C10.9227 13.496 9.05814 11.3182 7.95763 10.3287C7.06595 9.52818 6.3367 9.11051 5.71021 9.25636C7.53665 9.85965 9.18741 12.0507 9.9349 12.959Z" fill="url(#paint15_linear_1696_7340)"/>
<path d="M10.7884 8.82542C12.048 10.1944 13.9142 12.9092 14.8622 12.4352C14.7064 12.4833 14.3733 12.2761 14.1131 12.0159C13.8214 11.7242 11.2392 8.663 10.6541 8.00667C9.89502 7.15477 8.99672 5.62997 7.96582 5.16258C9.00501 5.98133 9.7674 7.71662 10.7884 8.82542Z" fill="url(#paint16_linear_1696_7340)"/>
<path d="M18.1837 11.9231C17.5953 11.4425 17.0451 10.7099 16.6506 10.0834C15.9992 9.05088 13.3259 5.72615 12.6745 4.78309C12.4756 4.49637 12.2568 4.29582 12.0298 4.16986C12.3331 4.60575 12.5038 5.22728 13.19 5.99631C14.2905 7.23107 15.7274 9.45528 16.223 10.2193C16.7169 10.9817 17.5141 12.5927 18.1837 11.9231Z" fill="url(#paint17_linear_1696_7340)"/>
<path d="M21.7867 22.8852C21.3773 21.8907 20.7806 21.2858 19.9171 21.8543C17.562 23.4039 14.8521 22.8819 11.4561 20.1356C8.42643 17.6859 6.86019 15.9341 5.38677 15.3009C5.03374 16.1064 6.49059 17.3992 6.83533 17.7439C7.38558 18.2942 9.64295 20.3792 10.3391 20.8665C11.5291 21.6968 13.9107 25 17.0548 25C18.81 24.9983 20.5038 24.1133 21.7867 22.8852Z" fill="url(#paint18_linear_1696_7340)"/>
<path d="M23.2983 12.2397C23.3431 10.2624 24.78 9.31937 24.78 8.33156C24.78 8.03986 24.6292 7.82771 24.4137 7.67192C24.6773 8.44095 24.0508 9.1238 23.1176 10.2856C22.1066 11.5436 21.8829 13.4977 22.579 15.4517C23.2751 17.4058 22.4 20.1007 20.9846 20.9543C19.5692 21.8078 17.6897 25.5585 12.3065 21.3205C12.3048 21.3189 12.3048 21.3189 12.3032 21.3172C11.975 21.0123 11.6502 20.7421 11.3203 20.5383C9.04639 19.1295 7.75197 17.8632 6.77245 16.7992C6.58019 16.5903 6.06308 15.7865 5.44653 16.0517C5.75481 16.7495 6.58516 17.4936 6.83377 17.7439C7.38402 18.2941 9.64139 20.3791 10.3375 20.8664C10.4287 20.9294 10.5264 21.0073 10.6309 21.0968C10.6574 21.12 10.6855 21.1432 10.7137 21.1681C10.7204 21.1747 10.7286 21.1813 10.7353 21.188C10.7535 21.2045 10.7701 21.2194 10.7883 21.236C10.7916 21.2393 10.7966 21.2426 10.7999 21.2476C11.506 21.889 12.4788 22.9514 13.6705 23.7818C13.6705 23.7818 13.6722 23.7818 13.6722 23.7834C13.7766 23.8564 13.8827 23.9276 13.9904 23.9972C13.992 23.9989 13.9937 23.9989 13.9954 24.0006C14.1031 24.0685 14.2108 24.1348 14.3219 24.1978C14.3235 24.1978 14.3235 24.1994 14.3252 24.1994C15.1506 24.6735 16.0638 25 17.0516 25C20.6896 25 24.059 21.2045 24.059 18.4185C24.0624 15.6324 23.2453 14.575 23.2983 12.2397Z" fill="url(#paint19_radial_1696_7340)"/>
<defs>
<linearGradient id="paint0_linear_1696_7340" x1="22.2936" y1="25.7182" x2="19.2951" y2="18.6931" gradientUnits="userSpaceOnUse">
<stop offset="0.00132565" stop-color="#F0C492"/>
<stop offset="1" stop-color="#F8DBBA"/>
</linearGradient>
<linearGradient id="paint1_linear_1696_7340" x1="24.4482" y1="22.6905" x2="18.1591" y2="15.1885" gradientUnits="userSpaceOnUse">
<stop offset="0.00132565" stop-color="#F0C492"/>
<stop offset="1" stop-color="#F8DBBA"/>
</linearGradient>
<linearGradient id="paint2_linear_1696_7340" x1="6.0802" y1="15.8375" x2="9.78627" y2="18.5665" gradientUnits="userSpaceOnUse">
<stop offset="0.00132565" stop-color="#F0C492"/>
<stop offset="1" stop-color="#F8DBBA"/>
</linearGradient>
<linearGradient id="paint3_linear_1696_7340" x1="4.73091" y1="8.61439" x2="11.2334" y2="15.4201" gradientUnits="userSpaceOnUse">
<stop offset="0.00132565" stop-color="#F0C492"/>
<stop offset="1" stop-color="#F8DBBA"/>
</linearGradient>
<linearGradient id="paint4_linear_1696_7340" x1="11.7544" y1="5.40354" x2="15.5279" y2="11.3333" gradientUnits="userSpaceOnUse">
<stop offset="0.00132565" stop-color="#F0C492"/>
<stop offset="1" stop-color="#F8DBBA"/>
</linearGradient>
<linearGradient id="paint5_linear_1696_7340" x1="7.85917" y1="6.38851" x2="12.9803" y2="13.3065" gradientUnits="userSpaceOnUse">
<stop offset="0.00132565" stop-color="#F0C492"/>
<stop offset="1" stop-color="#F8DBBA"/>
</linearGradient>
<linearGradient id="paint6_linear_1696_7340" x1="9.72274" y1="12.6558" x2="7.57325" y2="14.6807" gradientUnits="userSpaceOnUse">
<stop stop-color="#F0C492" stop-opacity="0"/>
<stop offset="1" stop-color="#F0C492"/>
</linearGradient>
<linearGradient id="paint7_linear_1696_7340" x1="13.9495" y1="7.22326" x2="10.7151" y2="10.1432" gradientUnits="userSpaceOnUse">
<stop stop-color="#F0C492" stop-opacity="0"/>
<stop offset="1" stop-color="#F0C492"/>
</linearGradient>
<linearGradient id="paint8_linear_1696_7340" x1="10.9744" y1="9.30351" x2="6.52708" y2="12.5547" gradientUnits="userSpaceOnUse">
<stop stop-color="#F0C492" stop-opacity="0"/>
<stop offset="1" stop-color="#F0C492"/>
</linearGradient>
<linearGradient id="paint9_linear_1696_7340" x1="14.2873" y1="13.8352" x2="9.83992" y2="17.0864" gradientUnits="userSpaceOnUse">
<stop stop-color="#F0C492" stop-opacity="0"/>
<stop offset="1" stop-color="#F0C492"/>
</linearGradient>
<radialGradient id="paint10_radial_1696_7340" cx="0" cy="0" r="1" gradientUnits="userSpaceOnUse" gradientTransform="translate(20.1133 8.55311) scale(5.33793 5.33794)">
<stop stop-color="#F0C492" stop-opacity="0"/>
<stop offset="1" stop-color="#F0C492"/>
</radialGradient>
<linearGradient id="paint11_linear_1696_7340" x1="14.5418" y1="6.64988" x2="11.7791" y2="9.21045" gradientUnits="userSpaceOnUse">
<stop offset="0.3118" stop-color="#F0C492" stop-opacity="0"/>
<stop offset="1" stop-color="#E6AF74"/>
</linearGradient>
<linearGradient id="paint12_linear_1696_7340" x1="12.4262" y1="8.03774" x2="8.78751" y2="11.3171" gradientUnits="userSpaceOnUse">
<stop offset="0.3118" stop-color="#F0C492" stop-opacity="0"/>
<stop offset="1" stop-color="#E6AF74"/>
</linearGradient>
<linearGradient id="paint13_linear_1696_7340" x1="11.1962" y1="11.5846" x2="6.70394" y2="15.3581" gradientUnits="userSpaceOnUse">
<stop offset="0.3118" stop-color="#F0C492" stop-opacity="0"/>
<stop offset="1" stop-color="#E6AF74"/>
</linearGradient>
<linearGradient id="paint14_linear_1696_7340" x1="6.29471" y1="14.3258" x2="11.5169" y2="18.571" gradientUnits="userSpaceOnUse">
<stop offset="0.3118" stop-color="#F0C492" stop-opacity="0"/>
<stop offset="1" stop-color="#E6AF74"/>
</linearGradient>
<linearGradient id="paint15_linear_1696_7340" x1="7.29424" y1="9.06385" x2="11.3709" y2="15.2631" gradientUnits="userSpaceOnUse">
<stop offset="0.3118" stop-color="#F0C492" stop-opacity="0"/>
<stop offset="1" stop-color="#E6AF74"/>
</linearGradient>
<linearGradient id="paint16_linear_1696_7340" x1="10.4874" y1="9.50667" x2="11.6329" y2="8.63069" gradientUnits="userSpaceOnUse">
<stop offset="0.3118" stop-color="#F0C492" stop-opacity="0"/>
<stop offset="1" stop-color="#E6AF74"/>
</linearGradient>
<linearGradient id="paint17_linear_1696_7340" x1="15.2171" y1="7.46049" x2="13.1058" y2="18.736" gradientUnits="userSpaceOnUse">
<stop offset="0.00132565" stop-color="#F0C492"/>
<stop offset="1" stop-color="#F8DBBA"/>
</linearGradient>
<linearGradient id="paint18_linear_1696_7340" x1="12.6534" y1="19.952" x2="10.3624" y2="22.0578" gradientUnits="userSpaceOnUse">
<stop offset="0.3118" stop-color="#F0C492" stop-opacity="0"/>
<stop offset="1" stop-color="#F0C492"/>
</linearGradient>
<radialGradient id="paint19_radial_1696_7340" cx="0" cy="0" r="1" gradientUnits="userSpaceOnUse" gradientTransform="translate(14.6425 14.6773) rotate(48.1397) scale(15.4749 14.0474)">
<stop offset="0.6134" stop-color="#F0C492" stop-opacity="0"/>
<stop offset="1" stop-color="#E6AF74"/>
</radialGradient>
</defs>
</svg>
