<svg width="16" height="16" viewBox="0 0 16 16" fill="none" xmlns="http://www.w3.org/2000/svg">
<path d="M11.6867 5.18001C11.64 5.17334 11.5934 5.17334 11.5467 5.18001C10.5134 5.14668 9.69336 4.30001 9.69336 3.26001C9.69336 2.20001 10.5534 1.33334 11.62 1.33334C12.68 1.33334 13.5467 2.19334 13.5467 3.26001C13.54 4.30001 12.72 5.14668 11.6867 5.18001Z" fill="white"/>
<path d="M13.8602 9.79999C13.1136 10.3 12.0669 10.4867 11.1002 10.36C11.3536 9.81333 11.4869 9.20666 11.4936 8.56666C11.4936 7.89999 11.3469 7.26666 11.0669 6.71333C12.0536 6.57999 13.1002 6.76666 13.8536 7.26666C14.9069 7.95999 14.9069 9.09999 13.8602 9.79999Z" fill="white"/>
<path d="M4.29327 5.18001C4.33994 5.17334 4.38661 5.17334 4.43327 5.18001C5.46661 5.14668 6.28661 4.30001 6.28661 3.26001C6.28661 2.19334 5.42661 1.33334 4.35994 1.33334C3.29994 1.33334 2.43994 2.19334 2.43994 3.26001C2.43994 4.30001 3.25994 5.14668 4.29327 5.18001Z" fill="white"/>
<path d="M4.36674 8.56666C4.36674 9.21333 4.50674 9.82666 4.76008 10.38C3.82008 10.48 2.84008 10.28 2.12008 9.80666C1.06674 9.10666 1.06674 7.96666 2.12008 7.26666C2.83341 6.78666 3.84008 6.59333 4.78674 6.7C4.51341 7.26 4.36674 7.89333 4.36674 8.56666Z" fill="white"/>
<path d="M8.08019 10.58C8.02686 10.5733 7.96686 10.5733 7.90686 10.58C6.68019 10.54 5.7002 9.53333 5.7002 8.29333C5.70686 7.02667 6.72686 6 8.0002 6C9.26686 6 10.2935 7.02667 10.2935 8.29333C10.2869 9.53333 9.31353 10.54 8.08019 10.58Z" fill="white"/>
<path d="M5.9132 11.96C4.90654 12.6333 4.90654 13.74 5.9132 14.4067C7.05987 15.1733 8.93987 15.1733 10.0865 14.4067C11.0932 13.7333 11.0932 12.6267 10.0865 11.96C8.94654 11.1933 7.06654 11.1933 5.9132 11.96Z" fill="white"/>
</svg>
