<svg width="15" height="14" viewBox="0 0 15 14" fill="none" xmlns="http://www.w3.org/2000/svg">
<path d="M10.3792 4.53253C10.3383 4.52669 10.2975 4.52669 10.2567 4.53253C9.35251 4.50336 8.63501 3.76253 8.63501 2.85253C8.63501 1.92503 9.38751 1.16669 10.3208 1.16669C11.2483 1.16669 12.0067 1.91919 12.0067 2.85253C12.0008 3.76253 11.2833 4.50336 10.3792 4.53253Z" fill="url(#paint0_linear_1696_11157)"/>
<path d="M12.2808 8.57504C11.6275 9.01254 10.7117 9.17587 9.86584 9.06504C10.0875 8.5867 10.2042 8.05587 10.21 7.49587C10.21 6.91254 10.0817 6.35837 9.83667 5.8742C10.7 5.75754 11.6158 5.92087 12.275 6.35837C13.1967 6.96504 13.1967 7.96254 12.2808 8.57504Z" fill="url(#paint1_linear_1696_11157)"/>
<path d="M3.91 4.53253C3.95083 4.52669 3.99166 4.52669 4.0325 4.53253C4.93666 4.50336 5.65416 3.76253 5.65416 2.85253C5.65416 1.91919 4.90166 1.16669 3.96833 1.16669C3.04083 1.16669 2.28833 1.91919 2.28833 2.85253C2.28833 3.76253 3.00583 4.50336 3.91 4.53253Z" fill="url(#paint2_linear_1696_11157)"/>
<path d="M3.97422 7.49586C3.97422 8.06169 4.09672 8.59836 4.31839 9.08252C3.49589 9.17002 2.63839 8.99502 2.00839 8.58086C1.08672 7.96836 1.08672 6.97086 2.00839 6.35836C2.63256 5.93836 3.51339 5.76919 4.34172 5.86253C4.10256 6.35252 3.97422 6.90669 3.97422 7.49586Z" fill="url(#paint3_linear_1696_11157)"/>
<path d="M7.22337 9.25753C7.1767 9.2517 7.1242 9.2517 7.0717 9.25753C5.99837 9.22253 5.14087 8.3417 5.14087 7.2567C5.1467 6.14836 6.0392 5.25003 7.15337 5.25003C8.2617 5.25003 9.16004 6.14836 9.16004 7.2567C9.1542 8.3417 8.30254 9.22253 7.22337 9.25753Z" fill="url(#paint4_linear_1696_11157)"/>
<path d="M5.32737 10.465C4.44654 11.0542 4.44654 12.0225 5.32737 12.6059C6.33071 13.2767 7.97571 13.2767 8.97904 12.6059C9.85987 12.0167 9.85987 11.0484 8.97904 10.465C7.98154 9.79419 6.33654 9.79419 5.32737 10.465Z" fill="url(#paint5_linear_1696_11157)"/>
<defs>
<linearGradient id="paint0_linear_1696_11157" x1="10.3208" y1="1.16669" x2="10.3208" y2="4.53253" gradientUnits="userSpaceOnUse">
<stop stop-color="#6595FF"/>
<stop offset="1" stop-color="#407BFF"/>
</linearGradient>
<linearGradient id="paint1_linear_1696_11157" x1="11.4018" y1="5.83769" x2="11.4018" y2="9.09864" gradientUnits="userSpaceOnUse">
<stop stop-color="#6595FF"/>
<stop offset="1" stop-color="#407BFF"/>
</linearGradient>
<linearGradient id="paint2_linear_1696_11157" x1="3.97125" y1="1.16669" x2="3.97125" y2="4.53253" gradientUnits="userSpaceOnUse">
<stop stop-color="#6595FF"/>
<stop offset="1" stop-color="#407BFF"/>
</linearGradient>
<linearGradient id="paint3_linear_1696_11157" x1="2.82943" y1="5.83757" x2="2.82943" y2="9.10451" gradientUnits="userSpaceOnUse">
<stop stop-color="#6595FF"/>
<stop offset="1" stop-color="#407BFF"/>
</linearGradient>
<linearGradient id="paint4_linear_1696_11157" x1="7.15045" y1="5.25003" x2="7.15045" y2="9.25753" gradientUnits="userSpaceOnUse">
<stop stop-color="#6595FF"/>
<stop offset="1" stop-color="#407BFF"/>
</linearGradient>
<linearGradient id="paint5_linear_1696_11157" x1="7.15321" y1="9.9619" x2="7.15321" y2="13.109" gradientUnits="userSpaceOnUse">
<stop stop-color="#6595FF"/>
<stop offset="1" stop-color="#407BFF"/>
</linearGradient>
</defs>
</svg>
