<svg width="16" height="20" viewBox="0 0 16 20" fill="none" xmlns="http://www.w3.org/2000/svg">
<path d="M13.9952 2.77667L8.95356 0.888333C8.43106 0.695833 7.57856 0.695833 7.05606 0.888333L2.01439 2.77667C1.04273 3.14333 0.254395 4.28 0.254395 5.31583V12.7408C0.254395 13.4833 0.740228 14.4642 1.33606 14.9042L6.37773 18.6717C7.26689 19.3408 8.72439 19.3408 9.61356 18.6717L14.6552 14.9042C15.2511 14.455 15.7369 13.4833 15.7369 12.7408V5.31583C15.7461 4.28 14.9577 3.14333 13.9952 2.77667ZM11.1902 7.91L7.24856 11.8517C7.11106 11.9892 6.93689 12.0533 6.76273 12.0533C6.58856 12.0533 6.41439 11.9892 6.27689 11.8517L4.81023 10.3667C4.54439 10.1008 4.54439 9.66083 4.81023 9.395C5.07606 9.12917 5.51606 9.12917 5.78189 9.395L6.77189 10.385L10.2277 6.92917C10.4936 6.66333 10.9336 6.66333 11.1994 6.92917C11.4652 7.195 11.4652 7.64417 11.1902 7.91Z" fill="url(#paint0_linear_3998_5712)"/>
<defs>
<linearGradient id="paint0_linear_3998_5712" x1="7.99568" y1="0.743958" x2="7.99568" y2="19.1735" gradientUnits="userSpaceOnUse">
<stop stop-color="#6595FF"/>
<stop offset="1" stop-color="#407BFF"/>
</linearGradient>
</defs>
</svg>
