<svg width="24" height="24" viewBox="0 0 24 24" fill="none" xmlns="http://www.w3.org/2000/svg">
<path d="M3.45 10.8571C4.71859 10.8571 5.75 9.83214 5.75 8.57143C5.75 7.31071 4.71859 6.28571 3.45 6.28571C2.18141 6.28571 1.15 7.31071 1.15 8.57143C1.15 9.83214 2.18141 10.8571 3.45 10.8571ZM19.55 10.8571C20.8186 10.8571 21.85 9.83214 21.85 8.57143C21.85 7.31071 20.8186 6.28571 19.55 6.28571C18.2814 6.28571 17.25 7.31071 17.25 8.57143C17.25 9.83214 18.2814 10.8571 19.55 10.8571ZM20.7 12H18.4C17.7675 12 17.1961 12.2536 16.7792 12.6643C18.2275 13.4536 19.2553 14.8786 19.4781 16.5714H21.85C22.4861 16.5714 23 16.0607 23 15.4286V14.2857C23 13.025 21.9686 12 20.7 12ZM11.5 12C13.7245 12 15.525 10.2107 15.525 8C15.525 5.78929 13.7245 4 11.5 4C9.27547 4 7.475 5.78929 7.475 8C7.475 10.2107 9.27547 12 11.5 12ZM14.26 13.1429H13.9617C13.2142 13.5 12.3841 13.7143 11.5 13.7143C10.6159 13.7143 9.78937 13.5 9.03828 13.1429H8.74C6.45437 13.1429 4.6 14.9857 4.6 17.2571V18.2857C4.6 19.2321 5.37266 20 6.325 20H16.675C17.6273 20 18.4 19.2321 18.4 18.2857V17.2571C18.4 14.9857 16.5456 13.1429 14.26 13.1429ZM6.22078 12.6643C5.80391 12.2536 5.2325 12 4.6 12H2.3C1.03141 12 0 13.025 0 14.2857V15.4286C0 16.0607 0.513906 16.5714 1.15 16.5714H3.51828C3.74469 14.8786 4.7725 13.4536 6.22078 12.6643Z" fill="#8695AE"/>
</svg>
