<svg width="20" height="20" viewBox="0 0 20 20" fill="none" xmlns="http://www.w3.org/2000/svg">
<path fill-rule="evenodd" clip-rule="evenodd" d="M9.57273 2.94871C5.91374 2.94871 2.9488 5.91129 2.9488 9.56425C2.9488 13.2172 5.91374 16.1798 9.57273 16.1798C11.3982 16.1798 13.05 15.4432 14.2487 14.25C15.4528 13.0514 16.1967 11.3951 16.1967 9.56425C16.1967 5.91129 13.2317 2.94871 9.57273 2.94871ZM1.66675 9.56425C1.66675 5.20183 5.20708 1.66666 9.57273 1.66666C13.9384 1.66666 17.4787 5.20183 17.4787 9.56425C17.4787 11.5187 16.7673 13.3081 15.5904 14.6867L18.1454 17.2388C18.3959 17.489 18.3961 17.8948 18.1459 18.1453C17.8957 18.3958 17.4899 18.396 17.2394 18.1458L14.6819 15.5913C13.3043 16.7577 11.5203 17.4619 9.57273 17.4619C5.20708 17.4619 1.66675 13.9267 1.66675 9.56425Z" fill="#8696AE" stroke="#8696AE" stroke-width="0.5" stroke-linecap="round" stroke-linejoin="round"/>
</svg>
