<svg width="42" height="46" viewBox="0 0 42 46" fill="none" xmlns="http://www.w3.org/2000/svg">
<path d="M14.5072 10.7792C17.4206 10.6865 19.7076 8.23588 19.6154 5.30564C19.5233 2.37541 17.0867 0.0751513 14.1734 0.167871C11.26 0.26059 8.97293 2.71118 9.06511 5.64141C9.1573 8.57164 11.5938 10.8719 14.5072 10.7792Z" fill="#FAFBFF"/>
<path d="M0.365825 24.3242L8.76233 13.2552C9.0622 12.8631 9.51201 12.652 9.99181 12.652H18.5682C19.048 12.652 19.4979 12.8631 19.7677 13.2552L28.2542 24.2337C28.8839 25.0179 28.734 26.164 27.9243 26.7974C27.2346 27.3403 26.245 27.28 25.5853 26.6768L19.5878 19.7096L22.2867 31.4422H18.5383L18.9281 43.2351C18.9581 44.2304 18.1484 45.0749 17.1588 45.0749C16.2292 45.0749 15.4495 44.3812 15.3596 43.4462L14.34 32.6185L13.3504 43.4462C13.2605 44.351 12.5108 45.0749 11.5812 45.0749C10.5616 45.0749 9.75191 44.2304 9.7819 43.2351L10.1118 31.4422H6.36333L8.94225 19.7096L3.0647 26.7371C2.43496 27.3403 1.44538 27.4006 0.725676 26.8879C-0.0839862 26.2545 -0.233925 25.1084 0.365825 24.3242Z" fill="#FAFBFF"/>
<path d="M32.5095 26.8879C30.8939 26.8879 29.5775 25.5608 29.5775 23.902C29.5775 22.2733 30.8939 20.9462 32.5394 20.9462C34.155 20.9462 35.4713 22.2733 35.4713 23.9322C35.4713 25.5608 34.155 26.8879 32.5095 26.8879Z" fill="#FAFBFF"/>
<path d="M24.1026 27.28C23.7436 26.9181 23.6838 26.345 24.0129 25.953C24.342 25.5307 24.9403 25.4402 25.3592 25.772L28.7997 28.2452H32.5394H36.2791L39.7197 25.772C40.1385 25.4704 40.7369 25.5609 41.066 25.953C41.3951 26.345 41.2754 26.9784 40.9164 27.3404L35.9201 32.1058L35.3517 36.2378L36.2193 43.4463C36.339 44.3209 35.6509 45.0749 34.7832 45.0749C34.0951 45.0749 33.4968 44.5622 33.3771 43.8987L32.5095 39.1936L31.6419 43.8987C31.5222 44.5924 30.9239 45.0749 30.2357 45.0749C29.3681 45.0749 28.7099 44.3209 28.7997 43.4463L29.6673 36.2378L29.0989 32.1058L24.1026 27.28Z" fill="#FAFBFF"/>
</svg>
