<svg width="40" height="45" viewBox="0 0 40 45" fill="none" xmlns="http://www.w3.org/2000/svg">
<g clip-path="url(#clip0_2123_11721)">
<path d="M15.0743 10.0781C17.6863 8.86729 18.8365 5.73693 17.6434 3.08624C16.4502 0.435557 13.3656 -0.731686 10.7536 0.479131C8.14165 1.68995 6.99145 4.82031 8.18459 7.471C9.37772 10.1217 12.4624 11.2889 15.0743 10.0781Z" fill="#FAFBFF"/>
<path d="M26.0604 10.5495C28.9302 10.448 31.1756 8.00482 31.0756 5.09245C30.9756 2.18008 28.5681 -0.0986103 25.6983 0.00285866C22.8285 0.104328 20.5831 2.54753 20.6831 5.4599C20.783 8.37227 23.1906 10.651 26.0604 10.5495Z" fill="#FAFBFF"/>
<path d="M39.6161 23.9241L31.2556 13.0113C30.9602 12.6516 30.5171 12.4117 30.074 12.4117H7.06067C6.52891 12.4117 6.0267 12.7115 5.79036 13.2212L0.206903 24.7335C-0.265771 25.7229 0.147819 26.8921 1.12271 27.3718C2.06805 27.8215 3.19065 27.4317 3.66333 26.5023L7.53334 18.7975L8.36052 26.2625L6.61754 41.9421C6.44029 43.4411 7.62197 44.7602 9.09907 44.7602C10.3694 44.7602 11.4329 43.8008 11.5806 42.5417L13.0577 32.7382L14.5939 42.5417C14.7416 43.8008 15.8051 44.7602 17.0754 44.7602C18.5821 44.7602 22.2453 44.7902 23.2497 44.7602C24.1655 44.7602 24.9041 44.0107 24.9927 43.0813L25.9676 32.3185L26.972 43.0813C27.0607 44.0107 27.8288 44.7002 28.7446 44.7002C29.7195 44.7002 30.5171 43.8608 30.4875 42.8714L30.1035 31.1493H33.7963L31.1375 19.487L37.0459 26.4124C37.6958 27.012 38.6707 27.072 39.3502 26.5323C40.0887 25.8428 40.2069 24.7035 39.6161 23.9241Z" fill="#FAFBFF"/>
<path d="M19.7341 26.1726C21.418 26.1726 22.7474 24.7935 22.7474 23.0846C22.7474 21.3758 21.3885 20.0267 19.7046 20.0267C18.0207 20.0267 16.6913 21.4058 16.6913 23.1146C16.7208 24.7935 18.0798 26.1726 19.7341 26.1726Z" fill="#5E90FF"/>
<path d="M28.1536 33.9673C28.4786 33.5476 28.449 32.948 28.065 32.5883L23.3382 28.0313C23.0428 27.7615 22.6588 27.5816 22.2452 27.5816H19.7636H17.2821C16.8685 27.5816 16.4845 27.7315 16.189 28.0313L11.4623 32.5883C11.0783 32.948 11.0487 33.5476 11.3737 33.9673C11.6986 34.3871 12.319 34.477 12.7622 34.1772L16.3072 31.5989L16.8981 35.8861L15.7755 45.03H18.6706L19.7636 38.944L20.8567 45.03H23.7518L22.6292 35.8861L23.2201 31.5989L26.7651 34.1772C27.2082 34.477 27.7991 34.3871 28.1536 33.9673Z" fill="#5E90FF"/>
</g>
<defs>
<clipPath id="clip0_2123_11721">
<rect width="40" height="45" fill="white"/>
</clipPath>
</defs>
</svg>
