<svg width="26" height="45" viewBox="0 0 26 45" fill="none" xmlns="http://www.w3.org/2000/svg">
<path d="M0.197335 24.9729L5.80751 13.3957C6.04497 12.9145 6.54959 12.5837 7.0839 12.5837H18.9573C19.4916 12.5837 19.9962 12.8844 20.2337 13.3656L25.7845 24.4617C26.2297 25.3337 25.9626 26.3862 25.1908 26.9576C24.2112 27.6492 22.8755 27.3184 22.3115 26.2659L18.5417 18.9287L17.7699 26.4464L19.5806 42.1734C19.7587 43.6769 18.6011 45 17.0872 45C15.8108 45 14.7422 44.0377 14.5938 42.7748L13.0503 30.1751L11.5661 42.7748C11.4177 44.0377 10.3491 45 9.07269 45C7.58851 45 6.40118 43.6769 6.57928 42.1734L8.3306 26.4464L7.49946 18.9587L3.64062 26.717C3.16568 27.6492 2.03771 28.0401 1.08784 27.589C0.137968 27.138 -0.2776 25.9652 0.197335 24.9729Z" fill="#FAFBFF"/>
<path d="M13.1267 10.747C16.0105 10.6546 18.2744 8.2113 18.1831 5.28982C18.0918 2.36834 15.6801 0.0749534 12.7962 0.167396C9.91235 0.259838 7.6485 2.7031 7.73975 5.62458C7.831 8.54606 10.2428 10.8394 13.1267 10.747Z" fill="#FAFBFF"/>
</svg>
