<svg width="41" height="45" viewBox="0 0 41 45" fill="none" xmlns="http://www.w3.org/2000/svg">
<g clip-path="url(#clip0_2112_11573)">
<path d="M26.3948 24.8827L20.6542 13.3009C20.4112 12.8184 19.8948 12.4866 19.3481 12.4866H7.19858C6.65185 12.4866 6.1355 12.7882 5.89251 13.2708L0.212609 24.4001C-0.242998 25.2748 0.0303659 26.3304 0.820084 26.9035C1.82242 27.5972 3.18924 27.2654 3.76634 26.2098L7.62381 18.8204L8.41353 26.3606L6.56073 42.1347C6.37849 43.6428 7.56307 44.9698 9.11213 44.9698C10.4182 44.9698 11.5117 44.0047 11.6635 42.7379L13.243 30.1005L14.7617 42.7379C14.9135 44.0047 16.007 44.9698 17.3131 44.9698C18.8317 44.9698 20.0467 43.6428 19.8645 42.1347L18.0724 26.3606L18.9229 18.8505L22.9018 26.6019C23.3878 27.5369 24.542 27.929 25.514 27.4765C26.4556 27.0543 26.8808 25.878 26.3948 24.8827Z" fill="#8696AE"/>
<path d="M7.98828 5.27815C7.98828 8.20375 10.3574 10.5865 13.3037 10.5865C16.25 10.5865 18.6495 8.23391 18.6495 5.30831C18.6495 2.38271 16.2803 0 13.3341 0C10.3878 0 7.98828 2.35255 7.98828 5.27815Z" fill="#8696AE"/>
<path d="M31.7406 26.7225C30.1004 26.7225 28.764 25.3954 28.764 23.7366C28.764 22.1079 30.1004 20.7808 31.771 20.7808C33.4112 20.7808 34.7476 22.1079 34.7476 23.7667C34.7476 25.3954 33.4112 26.7225 31.7406 26.7225Z" fill="#8696AE"/>
<path d="M23.2056 27.1146C22.8411 26.7527 22.7803 26.1796 23.1145 25.7875C23.4486 25.3653 24.056 25.2748 24.4813 25.6066L27.9743 28.0797H31.771H35.5677L39.0607 25.6066C39.4859 25.3049 40.0934 25.3954 40.4275 25.7875C40.7616 26.1796 40.6401 26.813 40.2756 27.1749L35.2032 31.9403L34.6261 36.0724L35.507 43.2808C35.6285 44.1555 34.9299 44.9095 34.049 44.9095C33.3504 44.9095 32.7429 44.3968 32.6214 43.7332L31.7406 39.0281L30.8598 43.7332C30.7383 44.4269 30.1308 44.9095 29.4322 44.9095C28.5514 44.9095 27.8831 44.1555 27.9743 43.2808L28.8551 36.0724L28.278 31.9403L23.2056 27.1146Z" fill="#8696AE"/>
</g>
<defs>
<clipPath id="clip0_2112_11573">
<rect width="40.6098" height="45" fill="white"/>
</clipPath>
</defs>
</svg>
