<svg width="27" height="45" viewBox="0 0 27 45" fill="none" xmlns="http://www.w3.org/2000/svg">
<path d="M0.350655 24.9729L5.96083 13.3957C6.1983 12.9145 6.70291 12.5837 7.23722 12.5837H19.1106C19.6449 12.5837 20.1495 12.8844 20.387 13.3656L25.9378 24.4617C26.383 25.3337 26.1159 26.3862 25.3441 26.9576C24.3646 27.6492 23.0288 27.3184 22.4648 26.2659L18.695 18.9287L17.9233 26.4464L19.7339 42.1734C19.912 43.6769 18.7544 45 17.2405 45C15.9641 45 14.8955 44.0377 14.7471 42.7748L13.2036 30.1751L11.7194 42.7748C11.571 44.0377 10.5024 45 9.22601 45C7.74183 45 6.5545 43.6769 6.7326 42.1734L8.48392 26.4464L7.65278 18.9587L3.79394 26.717C3.319 27.6492 2.19103 28.0401 1.24116 27.589C0.291288 27.138 -0.12428 25.9652 0.350655 24.9729Z" fill="#8696AE"/>
<path d="M13.2799 10.747C16.1638 10.6545 18.4276 8.21128 18.3364 5.2898C18.2451 2.36833 15.8333 0.0749381 12.9495 0.167381C10.0656 0.259823 7.80176 2.70309 7.89301 5.62457C7.98426 8.54605 10.3961 10.8394 13.2799 10.747Z" fill="#8696AE"/>
</svg>
