<svg width="19" height="19" viewBox="0 0 19 19" fill="none" xmlns="http://www.w3.org/2000/svg">
<path d="M18.9998 1.58333V4.75H17.4165V2.70275L15.5165 4.60275C16.3603 5.72847 16.7464 7.13207 16.5969 8.531C16.4475 9.92992 15.7736 11.2203 14.711 12.1423C13.6483 13.0644 12.2759 13.5496 10.8698 13.5004C9.46381 13.4511 8.12865 12.8711 7.13313 11.8769C6.13761 10.8828 5.55566 9.54848 5.50443 8.14253C5.4532 6.73658 5.9365 5.36342 6.85704 4.29949C7.77757 3.23556 9.06698 2.55987 10.4657 2.40843C11.8644 2.257 13.2686 2.64107 14.3955 3.48333L16.2955 1.58333H14.2498V0H17.4165C17.8364 0 18.2391 0.166815 18.536 0.463748C18.833 0.76068 18.9998 1.16341 18.9998 1.58333ZM6.33314 13.2074C5.57209 12.5293 4.9661 11.6952 4.55643 10.7619C4.14676 9.82854 3.94302 8.81788 3.9591 7.79871C3.97518 6.77955 4.21069 5.77582 4.6496 4.85586C5.0885 3.93591 5.7205 3.12134 6.50255 2.46763C6.18549 2.4089 5.86391 2.37791 5.54147 2.375C4.14788 2.38573 2.80949 2.92115 1.79301 3.87456C0.776532 4.82797 0.156594 6.12936 0.0567343 7.51942C-0.0431258 8.90947 0.384424 10.2861 1.25418 11.375C2.12395 12.4639 3.37206 13.1852 4.7498 13.395V15.0417H2.37481V16.625H4.7498V19H6.33314V16.625H8.70813V15.0417H6.33314V13.2074Z" fill="#4D84FF"/>
</svg>
