<svg width="22" height="22" viewBox="0 0 22 22" fill="none" xmlns="http://www.w3.org/2000/svg">
<path d="M19.3145 4.79418C17.8387 4.64751 16.3628 4.53751 14.8778 4.45501V4.44584L14.6762 3.25418C14.5387 2.41084 14.337 1.14584 12.192 1.14584H9.79035C7.65451 1.14584 7.45285 2.35584 7.30618 3.24501L7.11368 4.41834C6.26118 4.47334 5.40868 4.52834 4.55618 4.61084L2.68618 4.79418C2.30118 4.83084 2.02618 5.17001 2.06285 5.54584C2.09951 5.92168 2.42951 6.19668 2.81451 6.16001L4.68451 5.97668C9.48785 5.50001 14.3278 5.68334 19.1862 6.16918C19.2137 6.16918 19.232 6.16918 19.2595 6.16918C19.6078 6.16918 19.9103 5.90334 19.947 5.54584C19.9745 5.17001 19.6995 4.83084 19.3145 4.79418Z" fill="url(#paint0_linear_1695_14689)"/>
<path d="M17.6271 7.46166C17.4071 7.23249 17.1046 7.10416 16.7929 7.10416H5.20627C4.89461 7.10416 4.58294 7.23249 4.37211 7.46166C4.16127 7.69082 4.04211 8.00249 4.06044 8.32332L4.62877 17.7283C4.72961 19.1217 4.85794 20.8633 8.05711 20.8633H13.9421C17.1413 20.8633 17.2696 19.1308 17.3704 17.7283L17.9388 8.33249C17.9571 8.00249 17.8379 7.69082 17.6271 7.46166ZM12.5213 16.2708H9.46877C9.09294 16.2708 8.78127 15.9592 8.78127 15.5833C8.78127 15.2075 9.09294 14.8958 9.46877 14.8958H12.5213C12.8971 14.8958 13.2088 15.2075 13.2088 15.5833C13.2088 15.9592 12.8971 16.2708 12.5213 16.2708ZM13.2913 12.6042H8.70794C8.33211 12.6042 8.02044 12.2925 8.02044 11.9167C8.02044 11.5408 8.33211 11.2292 8.70794 11.2292H13.2913C13.6671 11.2292 13.9788 11.5408 13.9788 11.9167C13.9788 12.2925 13.6671 12.6042 13.2913 12.6042Z" fill="url(#paint1_linear_1695_14689)"/>
<defs>
<linearGradient id="paint0_linear_1695_14689" x1="11.0042" y1="1.14584" x2="11.0042" y2="6.16918" gradientUnits="userSpaceOnUse">
<stop stop-color="#6595FF"/>
<stop offset="1" stop-color="#407BFF"/>
</linearGradient>
<linearGradient id="paint1_linear_1695_14689" x1="10.9996" y1="7.10416" x2="10.9996" y2="20.8633" gradientUnits="userSpaceOnUse">
<stop stop-color="#6595FF"/>
<stop offset="1" stop-color="#407BFF"/>
</linearGradient>
</defs>
</svg>
