<svg width="31" height="30" viewBox="0 0 31 30" fill="none" xmlns="http://www.w3.org/2000/svg">
<rect opacity="0.1" x="0.15332" width="30" height="30" rx="4" fill="#DC1515"/>
<path d="M22.7116 9.35833C21.37 9.225 20.0283 9.125 18.6783 9.05V9.04166L18.495 7.95833C18.37 7.19166 18.1866 6.04166 16.2366 6.04166H14.0533C12.1116 6.04166 11.9283 7.14166 11.795 7.95L11.62 9.01666C10.845 9.06666 10.07 9.11666 9.29498 9.19166L7.59498 9.35833C7.24498 9.39166 6.99498 9.7 7.02831 10.0417C7.06164 10.3833 7.36164 10.6333 7.71164 10.6L9.41164 10.4333C13.7783 10 18.1783 10.1667 22.595 10.6083C22.62 10.6083 22.6366 10.6083 22.6616 10.6083C22.9783 10.6083 23.2533 10.3667 23.2866 10.0417C23.3116 9.7 23.0616 9.39166 22.7116 9.35833Z" fill="#DC1515"/>
<path d="M21.1783 11.7833C20.9783 11.575 20.7033 11.4583 20.42 11.4583H9.88667C9.60334 11.4583 9.32 11.575 9.12834 11.7833C8.93667 11.9917 8.82834 12.275 8.845 12.5667L9.36167 21.1167C9.45334 22.3833 9.57 23.9667 12.4783 23.9667H17.8283C20.7367 23.9667 20.8533 22.3917 20.945 21.1167L21.4617 12.575C21.4783 12.275 21.37 11.9917 21.1783 11.7833ZM16.5367 19.7917H13.7617C13.42 19.7917 13.1367 19.5083 13.1367 19.1667C13.1367 18.825 13.42 18.5417 13.7617 18.5417H16.5367C16.8783 18.5417 17.1617 18.825 17.1617 19.1667C17.1617 19.5083 16.8783 19.7917 16.5367 19.7917ZM17.2367 16.4583H13.07C12.7283 16.4583 12.445 16.175 12.445 15.8333C12.445 15.4917 12.7283 15.2083 13.07 15.2083H17.2367C17.5783 15.2083 17.8617 15.4917 17.8617 15.8333C17.8617 16.175 17.5783 16.4583 17.2367 16.4583Z" fill="#DC1515"/>
</svg>
