<svg width="41" height="45" viewBox="0 0 41 45" fill="none" xmlns="http://www.w3.org/2000/svg">
<g clip-path="url(#clip0_2123_11670)">
<path d="M15.1921 10.0781C17.8245 8.86729 18.9836 5.73693 17.7812 3.08624C16.5787 0.435557 13.47 -0.731687 10.8376 0.479131C8.20525 1.68995 7.04607 4.82031 8.24852 7.471C9.45097 10.1217 12.5597 11.2889 15.1921 10.0781Z" fill="#8696AE"/>
<path d="M26.264 10.5495C29.1562 10.448 31.4192 8.00482 31.3184 5.09245C31.2176 2.18008 28.7913 -0.0986103 25.8991 0.00285865C23.0068 0.104328 20.7439 2.54753 20.8446 5.4599C20.9454 8.37227 23.3717 10.651 26.264 10.5495Z" fill="#8696AE"/>
<path d="M39.9255 23.9241L31.4997 13.0113C31.202 12.6516 30.7554 12.4117 30.3088 12.4117H7.11574C6.57983 12.4117 6.07369 12.7115 5.83551 13.2212L0.208432 24.7335C-0.267934 25.7229 0.148886 26.8921 1.13139 27.3718C2.08412 27.8215 3.21549 27.4317 3.69186 26.5023L7.59211 18.7975L8.42575 26.2625L6.66915 41.9421C6.49051 43.4411 7.68143 44.7602 9.17007 44.7602C10.4503 44.7602 11.5221 43.8008 11.671 42.5417L13.1596 32.7382L14.7078 42.5417C14.8567 43.8008 15.9285 44.7602 17.2088 44.7602C18.7272 44.7602 22.419 44.7902 23.4313 44.7602C24.3542 44.7602 25.0986 44.0107 25.1879 43.0813L26.1704 32.3185L27.1827 43.0813C27.272 44.0107 28.0461 44.7002 28.969 44.7002C29.9516 44.7002 30.7554 43.8608 30.7256 42.8714L30.3386 31.1493H34.0602L31.3807 19.487L37.3352 26.4124C37.9902 27.012 38.9727 27.072 39.6575 26.5323C40.4018 25.8428 40.5209 24.7035 39.9255 23.9241Z" fill="#8696AE"/>
<path d="M19.8883 26.1726C21.5854 26.1726 22.9252 24.7935 22.9252 23.0846C22.9252 21.3758 21.5556 20.0267 19.8586 20.0267C18.1615 20.0267 16.8217 21.4058 16.8217 23.1146C16.8515 24.7935 18.221 26.1726 19.8883 26.1726Z" fill="white"/>
<path d="M28.3736 33.9673C28.7011 33.5476 28.6713 32.948 28.2843 32.5883L23.5206 28.0313C23.2229 27.7615 22.8358 27.5816 22.419 27.5816H19.9181H17.4172C17.0003 27.5816 16.6133 27.7315 16.3156 28.0313L11.5519 32.5883C11.1649 32.948 11.1351 33.5476 11.4626 33.9673C11.7901 34.3871 12.4153 34.477 12.8619 34.1772L16.4347 31.5989L17.0301 35.8861L15.8987 45.03H18.8165L19.9181 38.944L21.0197 45.03H23.9374L22.8061 35.8861L23.4015 31.5989L26.9743 34.1772C27.4209 34.477 28.0163 34.3871 28.3736 33.9673Z" fill="white"/>
</g>
<defs>
<clipPath id="clip0_2123_11670">
<rect width="40.3125" height="45" fill="white"/>
</clipPath>
</defs>
</svg>
